<svg width="398" height="426" viewBox="0 0 398 426" fill="none" xmlns="http://www.w3.org/2000/svg">
<rect y="268" width="398" height="158" rx="24" fill="#AFD8BA"/>
<path d="M151.392 320V308.72H155.2C157.024 308.72 158.432 309.205 159.424 310.176C160.416 311.136 160.912 312.528 160.912 314.352C160.912 316.176 160.416 317.573 159.424 318.544C158.432 319.515 157.024 320 155.2 320H151.392ZM152.704 318.88H155.104C158.048 318.88 159.52 317.371 159.52 314.352C159.52 311.344 158.048 309.84 155.104 309.84H152.704V318.88ZM166.323 320.144C165.566 320.144 164.91 319.979 164.355 319.648C163.8 319.317 163.368 318.853 163.059 318.256C162.76 317.648 162.611 316.933 162.611 316.112C162.611 315.291 162.76 314.581 163.059 313.984C163.368 313.376 163.8 312.907 164.355 312.576C164.91 312.245 165.566 312.08 166.323 312.08C167.07 312.08 167.72 312.245 168.275 312.576C168.84 312.907 169.272 313.376 169.571 313.984C169.88 314.581 170.035 315.291 170.035 316.112C170.035 316.933 169.88 317.648 169.571 318.256C169.272 318.853 168.84 319.317 168.275 319.648C167.72 319.979 167.07 320.144 166.323 320.144ZM166.323 319.104C167.048 319.104 167.63 318.848 168.067 318.336C168.504 317.813 168.723 317.072 168.723 316.112C168.723 315.141 168.504 314.4 168.067 313.888C167.63 313.376 167.048 313.12 166.323 313.12C165.587 313.12 165 313.376 164.563 313.888C164.136 314.4 163.923 315.141 163.923 316.112C163.923 317.072 164.136 317.813 164.563 318.336C165 318.848 165.587 319.104 166.323 319.104ZM171.982 320V312.224H173.246V313.552C173.502 313.061 173.864 312.693 174.334 312.448C174.803 312.203 175.331 312.08 175.918 312.08C177.763 312.08 178.686 313.104 178.686 315.152V320H177.39V315.232C177.39 314.507 177.246 313.979 176.958 313.648C176.68 313.307 176.232 313.136 175.614 313.136C174.899 313.136 174.328 313.36 173.902 313.808C173.486 314.245 173.278 314.832 173.278 315.568V320H171.982ZM183.523 320.144C182.99 320.144 182.51 320.043 182.083 319.84C181.667 319.627 181.337 319.339 181.091 318.976C180.846 318.613 180.723 318.208 180.723 317.76C180.723 317.195 180.867 316.747 181.155 316.416C181.454 316.085 181.939 315.851 182.611 315.712C183.294 315.563 184.222 315.488 185.395 315.488H185.907V314.992C185.907 314.331 185.769 313.856 185.491 313.568C185.225 313.269 184.793 313.12 184.195 313.12C183.726 313.12 183.273 313.189 182.835 313.328C182.398 313.456 181.95 313.669 181.491 313.968L181.043 313.024C181.449 312.736 181.939 312.507 182.515 312.336C183.102 312.165 183.662 312.08 184.195 312.08C185.198 312.08 185.939 312.325 186.419 312.816C186.91 313.307 187.155 314.069 187.155 315.104V320H185.939V318.656C185.737 319.115 185.422 319.477 184.995 319.744C184.579 320.011 184.089 320.144 183.523 320.144ZM183.731 319.168C184.371 319.168 184.894 318.949 185.299 318.512C185.705 318.064 185.907 317.499 185.907 316.816V316.336H185.411C184.547 316.336 183.865 316.379 183.363 316.464C182.873 316.539 182.526 316.677 182.323 316.88C182.131 317.072 182.035 317.339 182.035 317.68C182.035 318.117 182.185 318.475 182.483 318.752C182.793 319.029 183.209 319.168 183.731 319.168ZM192.68 320.144C191.762 320.144 191.074 319.904 190.616 319.424C190.157 318.933 189.928 318.229 189.928 317.312V313.232H188.408V312.224H189.928V309.84H191.224V312.224H193.688V313.232H191.224V317.184C191.224 317.792 191.352 318.256 191.608 318.576C191.864 318.885 192.28 319.04 192.856 319.04C193.026 319.04 193.197 319.019 193.368 318.976C193.538 318.933 193.693 318.891 193.832 318.848L194.056 319.84C193.917 319.915 193.714 319.984 193.448 320.048C193.181 320.112 192.925 320.144 192.68 320.144ZM194.993 310.288V308.832H196.594V310.288H194.993ZM195.154 320V312.224H196.45V320H195.154ZM202.104 320.144C201.347 320.144 200.691 319.979 200.136 319.648C199.582 319.317 199.15 318.853 198.84 318.256C198.542 317.648 198.392 316.933 198.392 316.112C198.392 315.291 198.542 314.581 198.84 313.984C199.15 313.376 199.582 312.907 200.136 312.576C200.691 312.245 201.347 312.08 202.104 312.08C202.851 312.08 203.502 312.245 204.056 312.576C204.622 312.907 205.054 313.376 205.352 313.984C205.662 314.581 205.816 315.291 205.816 316.112C205.816 316.933 205.662 317.648 205.352 318.256C205.054 318.853 204.622 319.317 204.056 319.648C203.502 319.979 202.851 320.144 202.104 320.144ZM202.104 319.104C202.83 319.104 203.411 318.848 203.848 318.336C204.286 317.813 204.504 317.072 204.504 316.112C204.504 315.141 204.286 314.4 203.848 313.888C203.411 313.376 202.83 313.12 202.104 313.12C201.368 313.12 200.782 313.376 200.344 313.888C199.918 314.4 199.704 315.141 199.704 316.112C199.704 317.072 199.918 317.813 200.344 318.336C200.782 318.848 201.368 319.104 202.104 319.104ZM207.763 320V312.224H209.027V313.552C209.283 313.061 209.646 312.693 210.115 312.448C210.584 312.203 211.112 312.08 211.699 312.08C213.544 312.08 214.467 313.104 214.467 315.152V320H213.171V315.232C213.171 314.507 213.027 313.979 212.739 313.648C212.462 313.307 212.014 313.136 211.395 313.136C210.68 313.136 210.11 313.36 209.683 313.808C209.267 314.245 209.059 314.832 209.059 315.568V320H207.763ZM219.481 320.144C218.873 320.144 218.297 320.059 217.753 319.888C217.209 319.717 216.761 319.477 216.409 319.168L216.825 318.256C217.209 318.565 217.63 318.795 218.089 318.944C218.558 319.083 219.033 319.152 219.513 319.152C220.121 319.152 220.579 319.04 220.889 318.816C221.198 318.592 221.353 318.288 221.353 317.904C221.353 317.605 221.251 317.371 221.049 317.2C220.846 317.019 220.526 316.88 220.089 316.784L218.633 316.464C217.31 316.176 216.649 315.493 216.649 314.416C216.649 313.712 216.926 313.147 217.481 312.72C218.046 312.293 218.782 312.08 219.689 312.08C220.222 312.08 220.729 312.165 221.209 312.336C221.699 312.496 222.105 312.736 222.425 313.056L221.993 313.968C221.683 313.68 221.321 313.461 220.905 313.312C220.499 313.152 220.094 313.072 219.689 313.072C219.091 313.072 218.638 313.189 218.329 313.424C218.019 313.659 217.865 313.968 217.865 314.352C217.865 314.949 218.259 315.333 219.049 315.504L220.505 315.808C221.187 315.957 221.705 316.197 222.057 316.528C222.409 316.848 222.585 317.285 222.585 317.84C222.585 318.555 222.302 319.12 221.737 319.536C221.171 319.941 220.419 320.144 219.481 320.144Z" fill="#042714"/>
<path d="M92.2854 381V373.096H90.4294V370.728H92.2854V368.424H90.4294V366.056H92.2854V358.152H97.3094L99.8054 366.056H102.717V358.152H106.269V366.056H108.093V368.424H106.269V370.728H108.093V373.096H106.269V381H101.213L98.6534 373.096H95.8374V381H92.2854ZM95.8374 370.728H97.9494L97.2454 368.424H95.7734L95.8374 370.728ZM102.813 376.008H102.973L102.845 373.096H101.981L102.813 376.008ZM95.7094 366.056H96.6054L95.6774 362.984H95.5494L95.7094 366.056ZM101.309 370.728H102.781L102.717 368.424H100.573L101.309 370.728ZM125.12 381.608C123.328 381.608 121.781 381.267 120.48 380.584C119.2 379.901 118.219 378.995 117.536 377.864C116.853 376.712 116.512 375.432 116.512 374.024H120.896C120.896 375.155 121.269 376.072 122.016 376.776C122.784 377.459 123.819 377.8 125.12 377.8C125.995 377.8 126.741 377.64 127.36 377.32C128 376.979 128.491 376.52 128.832 375.944C129.173 375.347 129.344 374.664 129.344 373.896C129.344 372.744 128.971 371.805 128.224 371.08C127.477 370.333 126.453 369.96 125.152 369.96C124.512 369.96 123.947 370.045 123.456 370.216C122.987 370.387 122.571 370.611 122.208 370.888L120.128 367.304L127.808 362.056L127.52 361.512H117.472V357.64H132.736V362.312L124.832 367.56L122.368 367.112C122.773 366.984 123.211 366.888 123.68 366.824C124.149 366.739 124.661 366.696 125.216 366.696C126.987 366.696 128.501 367.005 129.76 367.624C131.04 368.221 132.021 369.053 132.704 370.12C133.387 371.187 133.728 372.413 133.728 373.8V374.216C133.728 375.56 133.387 376.797 132.704 377.928C132.021 379.037 131.04 379.933 129.76 380.616C128.48 381.277 126.933 381.608 125.12 381.608ZM147.487 381.608C145.653 381.608 144.095 381.309 142.815 380.712C141.535 380.093 140.49 379.261 139.679 378.216C138.869 377.149 138.271 375.933 137.887 374.568C137.525 373.181 137.343 371.731 137.343 370.216V368.424C137.343 366.269 137.706 364.328 138.431 362.6C139.157 360.872 140.266 359.507 141.759 358.504C143.253 357.48 145.162 356.968 147.487 356.968C149.791 356.968 151.69 357.48 153.183 358.504C154.677 359.507 155.775 360.872 156.479 362.6C157.205 364.328 157.567 366.269 157.567 368.424V370.216C157.567 371.731 157.375 373.181 156.991 374.568C156.629 375.933 156.042 377.149 155.231 378.216C154.442 379.261 153.407 380.093 152.127 380.712C150.847 381.309 149.301 381.608 147.487 381.608ZM147.487 377.448C149.386 377.448 150.783 376.797 151.679 375.496C152.575 374.173 153.023 372.125 153.023 369.352C153.023 366.408 152.565 364.307 151.647 363.048C150.73 361.768 149.343 361.128 147.487 361.128C145.61 361.128 144.202 361.768 143.263 363.048C142.346 364.307 141.887 366.387 141.887 369.288C141.887 372.083 142.346 374.141 143.263 375.464C144.181 376.787 145.589 377.448 147.487 377.448ZM171.675 381.608C169.84 381.608 168.283 381.309 167.003 380.712C165.723 380.093 164.678 379.261 163.867 378.216C163.056 377.149 162.459 375.933 162.075 374.568C161.712 373.181 161.531 371.731 161.531 370.216V368.424C161.531 366.269 161.894 364.328 162.619 362.6C163.344 360.872 164.454 359.507 165.947 358.504C167.44 357.48 169.35 356.968 171.675 356.968C173.979 356.968 175.878 357.48 177.371 358.504C178.864 359.507 179.963 360.872 180.667 362.6C181.392 364.328 181.755 366.269 181.755 368.424V370.216C181.755 371.731 181.563 373.181 181.179 374.568C180.816 375.933 180.23 377.149 179.419 378.216C178.63 379.261 177.595 380.093 176.315 380.712C175.035 381.309 173.488 381.608 171.675 381.608ZM171.675 377.448C173.574 377.448 174.971 376.797 175.867 375.496C176.763 374.173 177.211 372.125 177.211 369.352C177.211 366.408 176.752 364.307 175.835 363.048C174.918 361.768 173.531 361.128 171.675 361.128C169.798 361.128 168.39 361.768 167.451 363.048C166.534 364.307 166.075 366.387 166.075 369.288C166.075 372.083 166.534 374.141 167.451 375.464C168.368 376.787 169.776 377.448 171.675 377.448ZM187.606 386.312L184.15 385L187.414 375.72L191.126 377.096L187.606 386.312ZM204.456 381.608C202.621 381.608 201.064 381.309 199.784 380.712C198.504 380.093 197.459 379.261 196.648 378.216C195.837 377.149 195.24 375.933 194.856 374.568C194.493 373.181 194.312 371.731 194.312 370.216V368.424C194.312 366.269 194.675 364.328 195.4 362.6C196.125 360.872 197.235 359.507 198.728 358.504C200.221 357.48 202.131 356.968 204.456 356.968C206.76 356.968 208.659 357.48 210.152 358.504C211.645 359.507 212.744 360.872 213.448 362.6C214.173 364.328 214.536 366.269 214.536 368.424V370.216C214.536 371.731 214.344 373.181 213.96 374.568C213.597 375.933 213.011 377.149 212.2 378.216C211.411 379.261 210.376 380.093 209.096 380.712C207.816 381.309 206.269 381.608 204.456 381.608ZM204.456 377.448C206.355 377.448 207.752 376.797 208.648 375.496C209.544 374.173 209.992 372.125 209.992 369.352C209.992 366.408 209.533 364.307 208.616 363.048C207.699 361.768 206.312 361.128 204.456 361.128C202.579 361.128 201.171 361.768 200.232 363.048C199.315 364.307 198.856 366.387 198.856 369.288C198.856 372.083 199.315 374.141 200.232 375.464C201.149 376.787 202.557 377.448 204.456 377.448ZM228.644 381.608C226.809 381.608 225.252 381.309 223.972 380.712C222.692 380.093 221.646 379.261 220.836 378.216C220.025 377.149 219.428 375.933 219.044 374.568C218.681 373.181 218.5 371.731 218.5 370.216V368.424C218.5 366.269 218.862 364.328 219.588 362.6C220.313 360.872 221.422 359.507 222.916 358.504C224.409 357.48 226.318 356.968 228.644 356.968C230.948 356.968 232.846 357.48 234.34 358.504C235.833 359.507 236.932 360.872 237.636 362.6C238.361 364.328 238.724 366.269 238.724 368.424V370.216C238.724 371.731 238.532 373.181 238.148 374.568C237.785 375.933 237.198 377.149 236.388 378.216C235.598 379.261 234.564 380.093 233.284 380.712C232.004 381.309 230.457 381.608 228.644 381.608ZM228.644 377.448C230.542 377.448 231.94 376.797 232.836 375.496C233.732 374.173 234.18 372.125 234.18 369.352C234.18 366.408 233.721 364.307 232.804 363.048C231.886 361.768 230.5 361.128 228.644 361.128C226.766 361.128 225.358 361.768 224.42 363.048C223.502 364.307 223.044 366.387 223.044 369.288C223.044 372.083 223.502 374.141 224.42 375.464C225.337 376.787 226.745 377.448 228.644 377.448ZM252.831 381.608C250.996 381.608 249.439 381.309 248.159 380.712C246.879 380.093 245.834 379.261 245.023 378.216C244.212 377.149 243.615 375.933 243.231 374.568C242.868 373.181 242.687 371.731 242.687 370.216V368.424C242.687 366.269 243.05 364.328 243.775 362.6C244.5 360.872 245.61 359.507 247.103 358.504C248.596 357.48 250.506 356.968 252.831 356.968C255.135 356.968 257.034 357.48 258.527 358.504C260.02 359.507 261.119 360.872 261.823 362.6C262.548 364.328 262.911 366.269 262.911 368.424V370.216C262.911 371.731 262.719 373.181 262.335 374.568C261.972 375.933 261.386 377.149 260.575 378.216C259.786 379.261 258.751 380.093 257.471 380.712C256.191 381.309 254.644 381.608 252.831 381.608ZM252.831 377.448C254.73 377.448 256.127 376.797 257.023 375.496C257.919 374.173 258.367 372.125 258.367 369.352C258.367 366.408 257.908 364.307 256.991 363.048C256.074 361.768 254.687 361.128 252.831 361.128C250.954 361.128 249.546 361.768 248.607 363.048C247.69 364.307 247.231 366.387 247.231 369.288C247.231 372.083 247.69 374.141 248.607 375.464C249.524 376.787 250.932 377.448 252.831 377.448ZM272.443 377.896V362.088H276.347V377.896H272.443ZM266.651 371.784V368.2H282.139V371.784H266.651Z" fill="#042714"/>
<rect x="0.5" y="3.5" width="259" height="165" rx="23.5" fill="#0B301A"/>
<rect x="0.5" y="3.5" width="259" height="165" rx="23.5" stroke="#CFE9D6"/>
<path d="M63.512 57V44.31H65.078L69.776 53.076L74.456 44.31H75.986V57H74.312V47.694L70.334 55.056H69.2L65.204 47.73V57H63.512ZM82.9039 57.162C81.4639 57.162 80.3299 56.76 79.5019 55.956C78.6739 55.14 78.2599 54.03 78.2599 52.626C78.2599 51.726 78.4399 50.934 78.7999 50.25C79.1719 49.554 79.6819 49.014 80.3299 48.63C80.9779 48.246 81.7219 48.054 82.5619 48.054C83.7739 48.054 84.7279 48.444 85.4239 49.224C86.1199 49.992 86.4679 51.054 86.4679 52.41V53.022H80.0239C80.1559 54.846 81.1219 55.758 82.9219 55.758C83.4259 55.758 83.9179 55.68 84.3979 55.524C84.8899 55.368 85.3519 55.11 85.7839 54.75L86.3239 56.01C85.9279 56.37 85.4179 56.652 84.7939 56.856C84.1699 57.06 83.5399 57.162 82.9039 57.162ZM82.6339 49.332C81.8779 49.332 81.2779 49.566 80.8339 50.034C80.3899 50.502 80.1199 51.126 80.0239 51.906H84.9379C84.9019 51.09 84.6859 50.46 84.2899 50.016C83.8939 49.56 83.3419 49.332 82.6339 49.332ZM91.2579 57.162C90.6459 57.162 90.0999 57.042 89.6199 56.802C89.1399 56.562 88.7559 56.238 88.4679 55.83C88.1919 55.422 88.0539 54.96 88.0539 54.444C88.0539 53.796 88.2159 53.286 88.5399 52.914C88.8759 52.542 89.4219 52.272 90.1779 52.104C90.9459 51.936 91.9779 51.852 93.2739 51.852H93.8859V51.384C93.8859 50.7 93.7419 50.208 93.4539 49.908C93.1659 49.608 92.6919 49.458 92.0319 49.458C91.5279 49.458 91.0239 49.536 90.5199 49.692C90.0159 49.836 89.4999 50.07 88.9719 50.394L88.4139 49.116C88.8699 48.792 89.4399 48.534 90.1239 48.342C90.8079 48.15 91.4619 48.054 92.0859 48.054C93.2859 48.054 94.1739 48.342 94.7499 48.918C95.3259 49.482 95.6139 50.37 95.6139 51.582V57H93.9039V55.542C93.6879 56.046 93.3519 56.442 92.8959 56.73C92.4399 57.018 91.8939 57.162 91.2579 57.162ZM91.6179 55.866C92.2659 55.866 92.8059 55.638 93.2379 55.182C93.6699 54.726 93.8859 54.15 93.8859 53.454V52.968H93.2919C92.4159 52.968 91.7259 53.01 91.2219 53.094C90.7299 53.178 90.3759 53.322 90.1599 53.526C89.9559 53.718 89.8539 53.988 89.8539 54.336C89.8539 54.792 90.0099 55.164 90.3219 55.452C90.6339 55.728 91.0659 55.866 91.6179 55.866ZM100.98 57.162C100.02 57.162 99.2998 56.892 98.8198 56.352C98.3518 55.812 98.1178 55.02 98.1178 53.976V44.31H99.9358V53.868C99.9358 55.056 100.422 55.65 101.394 55.65C101.538 55.65 101.67 55.644 101.79 55.632C101.922 55.62 102.054 55.596 102.186 55.56L102.15 57.018C101.742 57.114 101.352 57.162 100.98 57.162ZM106.61 57.162C105.89 57.162 105.218 57.072 104.594 56.892C103.97 56.7 103.448 56.436 103.028 56.1L103.55 54.876C103.994 55.188 104.48 55.428 105.008 55.596C105.548 55.764 106.088 55.848 106.628 55.848C107.264 55.848 107.744 55.734 108.068 55.506C108.392 55.278 108.554 54.972 108.554 54.588C108.554 54.276 108.446 54.036 108.23 53.868C108.014 53.688 107.69 53.55 107.258 53.454L105.548 53.112C104.036 52.8 103.28 52.02 103.28 50.772C103.28 49.944 103.61 49.284 104.27 48.792C104.93 48.3 105.794 48.054 106.862 48.054C107.474 48.054 108.056 48.144 108.608 48.324C109.172 48.504 109.64 48.774 110.012 49.134L109.49 50.358C109.13 50.046 108.716 49.806 108.248 49.638C107.78 49.47 107.318 49.386 106.862 49.386C106.238 49.386 105.764 49.506 105.44 49.746C105.116 49.974 104.954 50.286 104.954 50.682C104.954 51.282 105.35 51.666 106.142 51.834L107.852 52.176C108.632 52.332 109.22 52.596 109.616 52.968C110.024 53.34 110.228 53.844 110.228 54.48C110.228 55.32 109.898 55.98 109.238 56.46C108.578 56.928 107.702 57.162 106.61 57.162ZM121.407 57.162C120.411 57.162 119.499 57.036 118.671 56.784C117.843 56.52 117.141 56.154 116.565 55.686L117.159 54.21C117.759 54.666 118.401 55.008 119.085 55.236C119.769 55.464 120.543 55.578 121.407 55.578C122.427 55.578 123.177 55.398 123.657 55.038C124.149 54.666 124.395 54.186 124.395 53.598C124.395 53.118 124.221 52.74 123.873 52.464C123.525 52.176 122.943 51.948 122.127 51.78L120.201 51.384C119.061 51.144 118.209 50.748 117.645 50.196C117.093 49.644 116.817 48.9 116.817 47.964C116.817 47.208 117.015 46.542 117.411 45.966C117.819 45.39 118.383 44.946 119.103 44.634C119.823 44.31 120.651 44.148 121.587 44.148C122.451 44.148 123.249 44.28 123.981 44.544C124.725 44.796 125.355 45.168 125.871 45.66L125.259 47.082C124.239 46.182 123.009 45.732 121.569 45.732C120.681 45.732 119.973 45.93 119.445 46.326C118.929 46.722 118.671 47.25 118.671 47.91C118.671 48.414 118.833 48.816 119.157 49.116C119.481 49.416 120.021 49.644 120.777 49.8L122.685 50.196C123.885 50.448 124.779 50.838 125.367 51.366C125.955 51.882 126.249 52.584 126.249 53.472C126.249 54.216 126.051 54.864 125.655 55.416C125.259 55.968 124.701 56.4 123.981 56.712C123.261 57.012 122.403 57.162 121.407 57.162ZM132.298 57.162C130.858 57.162 129.724 56.76 128.896 55.956C128.068 55.14 127.654 54.03 127.654 52.626C127.654 51.726 127.834 50.934 128.194 50.25C128.566 49.554 129.076 49.014 129.724 48.63C130.372 48.246 131.116 48.054 131.956 48.054C133.168 48.054 134.122 48.444 134.818 49.224C135.514 49.992 135.862 51.054 135.862 52.41V53.022H129.418C129.55 54.846 130.516 55.758 132.316 55.758C132.82 55.758 133.312 55.68 133.792 55.524C134.284 55.368 134.746 55.11 135.178 54.75L135.718 56.01C135.322 56.37 134.812 56.652 134.188 56.856C133.564 57.06 132.934 57.162 132.298 57.162ZM132.028 49.332C131.272 49.332 130.672 49.566 130.228 50.034C129.784 50.502 129.514 51.126 129.418 51.906H134.332C134.296 51.09 134.08 50.46 133.684 50.016C133.288 49.56 132.736 49.332 132.028 49.332ZM137.844 57V48.216H139.608V49.782C140.064 48.738 141.012 48.156 142.452 48.036L143.046 48L143.172 49.548L142.074 49.656C140.478 49.812 139.68 50.634 139.68 52.122V57H137.844ZM147.678 57L143.898 48.216H145.86L148.542 54.894L151.296 48.216H153.15L149.316 57H147.678ZM158.42 57.162C156.98 57.162 155.846 56.76 155.018 55.956C154.19 55.14 153.776 54.03 153.776 52.626C153.776 51.726 153.956 50.934 154.316 50.25C154.688 49.554 155.198 49.014 155.846 48.63C156.494 48.246 157.238 48.054 158.078 48.054C159.29 48.054 160.244 48.444 160.94 49.224C161.636 49.992 161.984 51.054 161.984 52.41V53.022H155.54C155.672 54.846 156.638 55.758 158.438 55.758C158.942 55.758 159.434 55.68 159.914 55.524C160.406 55.368 160.868 55.11 161.3 54.75L161.84 56.01C161.444 56.37 160.934 56.652 160.31 56.856C159.686 57.06 159.056 57.162 158.42 57.162ZM158.15 49.332C157.394 49.332 156.794 49.566 156.35 50.034C155.906 50.502 155.636 51.126 155.54 51.906H160.454C160.418 51.09 160.202 50.46 159.806 50.016C159.41 49.56 158.858 49.332 158.15 49.332ZM167.313 57.162C166.546 57.162 165.868 56.982 165.28 56.622C164.704 56.25 164.254 55.722 163.93 55.038C163.606 54.354 163.444 53.544 163.444 52.608C163.444 51.672 163.606 50.868 163.93 50.196C164.254 49.512 164.704 48.984 165.28 48.612C165.856 48.24 166.534 48.054 167.313 48.054C167.974 48.054 168.562 48.198 169.078 48.486C169.594 48.774 169.978 49.164 170.23 49.656V44.31H172.048V57H170.266V55.47C170.014 55.998 169.624 56.412 169.096 56.712C168.58 57.012 167.986 57.162 167.313 57.162ZM167.782 55.758C168.526 55.758 169.126 55.488 169.582 54.948C170.038 54.408 170.266 53.628 170.266 52.608C170.266 51.588 170.038 50.814 169.582 50.286C169.126 49.746 168.526 49.476 167.782 49.476C167.026 49.476 166.42 49.746 165.964 50.286C165.508 50.814 165.28 51.588 165.28 52.608C165.28 53.628 165.508 54.408 165.964 54.948C166.42 55.488 167.026 55.758 167.782 55.758Z" fill="#CFE9D6"/>
<path d="M92.66 123V99.888L94.244 101.112H87.296V96.72H97.736V123H92.66ZM114.937 123.684C112.873 123.684 111.121 123.348 109.681 122.676C108.241 121.98 107.065 121.044 106.153 119.868C105.241 118.668 104.569 117.3 104.137 115.764C103.729 114.204 103.525 112.572 103.525 110.868V108.852C103.525 106.428 103.933 104.244 104.749 102.3C105.565 100.356 106.813 98.82 108.493 97.692C110.173 96.54 112.321 95.964 114.937 95.964C117.529 95.964 119.665 96.54 121.345 97.692C123.025 98.82 124.261 100.356 125.053 102.3C125.869 104.244 126.277 106.428 126.277 108.852V110.868C126.277 112.572 126.061 114.204 125.629 115.764C125.221 117.3 124.561 118.668 123.649 119.868C122.761 121.044 121.597 121.98 120.157 122.676C118.717 123.348 116.977 123.684 114.937 123.684ZM114.937 119.004C117.073 119.004 118.645 118.272 119.653 116.808C120.661 115.32 121.165 113.016 121.165 109.896C121.165 106.584 120.649 104.22 119.617 102.804C118.585 101.364 117.025 100.644 114.937 100.644C112.825 100.644 111.241 101.364 110.185 102.804C109.153 104.22 108.637 106.56 108.637 109.824C108.637 112.968 109.153 115.284 110.185 116.772C111.217 118.26 112.801 119.004 114.937 119.004ZM137 119.508V101.724H141.392V119.508H137ZM130.484 112.632V108.6H147.908V112.632H130.484Z" fill="#CFE9D6"/>
<rect x="188" y="116" width="210" height="158" rx="24" fill="#225100"/>
<path d="M217.54 168.144C216.655 168.144 215.855 168.032 215.14 167.808C214.425 167.573 213.807 167.237 213.284 166.8L213.748 165.744C214.292 166.16 214.863 166.469 215.46 166.672C216.057 166.875 216.751 166.976 217.54 166.976C218.5 166.976 219.209 166.8 219.668 166.448C220.137 166.085 220.372 165.611 220.372 165.024C220.372 164.555 220.201 164.181 219.86 163.904C219.529 163.627 218.969 163.408 218.18 163.248L216.516 162.912C215.513 162.699 214.761 162.352 214.26 161.872C213.769 161.381 213.524 160.731 213.524 159.92C213.524 159.248 213.695 158.661 214.036 158.16C214.388 157.659 214.873 157.269 215.492 156.992C216.111 156.715 216.825 156.576 217.636 156.576C218.393 156.576 219.097 156.699 219.748 156.944C220.399 157.179 220.948 157.52 221.396 157.968L220.932 158.992C220.452 158.555 219.945 158.24 219.412 158.048C218.879 157.845 218.281 157.744 217.62 157.744C216.777 157.744 216.105 157.941 215.604 158.336C215.103 158.72 214.852 159.232 214.852 159.872C214.852 160.384 215.007 160.789 215.316 161.088C215.636 161.387 216.153 161.605 216.868 161.744L218.532 162.096C219.609 162.32 220.404 162.661 220.916 163.12C221.439 163.568 221.7 164.181 221.7 164.96C221.7 165.589 221.529 166.144 221.188 166.624C220.857 167.104 220.377 167.477 219.748 167.744C219.129 168.011 218.393 168.144 217.54 168.144ZM226.649 168.144C225.731 168.144 225.043 167.904 224.585 167.424C224.126 166.933 223.897 166.229 223.897 165.312V161.232H222.377V160.224H223.897V157.84H225.193V160.224H227.657V161.232H225.193V165.184C225.193 165.792 225.321 166.256 225.577 166.576C225.833 166.885 226.249 167.04 226.825 167.04C226.995 167.04 227.166 167.019 227.337 166.976C227.507 166.933 227.662 166.891 227.801 166.848L228.025 167.84C227.886 167.915 227.683 167.984 227.417 168.048C227.15 168.112 226.894 168.144 226.649 168.144ZM231.874 168.144C230.008 168.144 229.074 167.115 229.074 165.056V160.224H230.37V165.04C230.37 165.733 230.509 166.245 230.786 166.576C231.074 166.907 231.522 167.072 232.13 167.072C232.792 167.072 233.33 166.853 233.746 166.416C234.162 165.968 234.37 165.376 234.37 164.64V160.224H235.666V168H234.402V166.688C234.157 167.157 233.81 167.52 233.362 167.776C232.925 168.021 232.429 168.144 231.874 168.144ZM241.051 168.144C240.358 168.144 239.75 167.979 239.227 167.648C238.715 167.317 238.315 166.853 238.027 166.256C237.75 165.648 237.611 164.933 237.611 164.112C237.611 163.28 237.75 162.565 238.027 161.968C238.315 161.36 238.715 160.896 239.227 160.576C239.75 160.245 240.358 160.08 241.051 160.08C241.659 160.08 242.192 160.213 242.651 160.48C243.12 160.747 243.467 161.115 243.691 161.584V156.72H244.987V168H243.723V166.576C243.499 167.067 243.152 167.451 242.683 167.728C242.214 168.005 241.67 168.144 241.051 168.144ZM241.323 167.104C242.048 167.104 242.63 166.848 243.067 166.336C243.504 165.813 243.723 165.072 243.723 164.112C243.723 163.141 243.504 162.4 243.067 161.888C242.63 161.376 242.048 161.12 241.323 161.12C240.587 161.12 240 161.376 239.563 161.888C239.136 162.4 238.923 163.141 238.923 164.112C238.923 165.072 239.136 165.813 239.563 166.336C240 166.848 240.587 167.104 241.323 167.104ZM250.923 168.144C249.696 168.144 248.726 167.787 248.011 167.072C247.296 166.347 246.939 165.365 246.939 164.128C246.939 163.328 247.099 162.624 247.419 162.016C247.739 161.397 248.176 160.923 248.731 160.592C249.296 160.251 249.947 160.08 250.683 160.08C251.739 160.08 252.566 160.421 253.163 161.104C253.76 161.776 254.059 162.704 254.059 163.888V164.384H248.203C248.246 165.269 248.502 165.947 248.971 166.416C249.44 166.875 250.091 167.104 250.923 167.104C251.392 167.104 251.84 167.035 252.267 166.896C252.694 166.747 253.099 166.507 253.483 166.176L253.931 167.088C253.579 167.419 253.131 167.68 252.587 167.872C252.043 168.053 251.488 168.144 250.923 168.144ZM250.715 161.04C249.979 161.04 249.398 161.269 248.971 161.728C248.544 162.187 248.294 162.789 248.219 163.536H252.939C252.907 162.747 252.699 162.133 252.315 161.696C251.942 161.259 251.408 161.04 250.715 161.04ZM255.935 168V160.224H257.199V161.552C257.455 161.061 257.817 160.693 258.287 160.448C258.756 160.203 259.284 160.08 259.871 160.08C261.716 160.08 262.639 161.104 262.639 163.152V168H261.343V163.232C261.343 162.507 261.199 161.979 260.911 161.648C260.633 161.307 260.185 161.136 259.567 161.136C258.852 161.136 258.281 161.36 257.855 161.808C257.439 162.245 257.231 162.832 257.231 163.568V168H255.935ZM268.149 168.144C267.231 168.144 266.543 167.904 266.085 167.424C265.626 166.933 265.397 166.229 265.397 165.312V161.232H263.877V160.224H265.397V157.84H266.693V160.224H269.157V161.232H266.693V165.184C266.693 165.792 266.821 166.256 267.077 166.576C267.333 166.885 267.749 167.04 268.325 167.04C268.495 167.04 268.666 167.019 268.837 166.976C269.007 166.933 269.162 166.891 269.301 166.848L269.525 167.84C269.386 167.915 269.183 167.984 268.917 168.048C268.65 168.112 268.394 168.144 268.149 168.144ZM273.246 168.144C272.638 168.144 272.062 168.059 271.518 167.888C270.974 167.717 270.526 167.477 270.174 167.168L270.59 166.256C270.974 166.565 271.396 166.795 271.854 166.944C272.324 167.083 272.798 167.152 273.278 167.152C273.886 167.152 274.345 167.04 274.654 166.816C274.964 166.592 275.118 166.288 275.118 165.904C275.118 165.605 275.017 165.371 274.814 165.2C274.612 165.019 274.292 164.88 273.854 164.784L272.398 164.464C271.076 164.176 270.414 163.493 270.414 162.416C270.414 161.712 270.692 161.147 271.246 160.72C271.812 160.293 272.548 160.08 273.454 160.08C273.988 160.08 274.494 160.165 274.974 160.336C275.465 160.496 275.87 160.736 276.19 161.056L275.758 161.968C275.449 161.68 275.086 161.461 274.67 161.312C274.265 161.152 273.86 161.072 273.454 161.072C272.857 161.072 272.404 161.189 272.094 161.424C271.785 161.659 271.63 161.968 271.63 162.352C271.63 162.949 272.025 163.333 272.814 163.504L274.27 163.808C274.953 163.957 275.47 164.197 275.822 164.528C276.174 164.848 276.35 165.285 276.35 165.84C276.35 166.555 276.068 167.12 275.502 167.536C274.937 167.941 274.185 168.144 273.246 168.144ZM286.371 168.144C285.752 168.144 285.208 168.005 284.739 167.728C284.28 167.451 283.933 167.072 283.699 166.592V168H282.435V156.72H283.731V161.568C283.955 161.109 284.301 160.747 284.771 160.48C285.24 160.213 285.773 160.08 286.371 160.08C287.064 160.08 287.667 160.245 288.179 160.576C288.701 160.896 289.101 161.36 289.379 161.968C289.667 162.565 289.811 163.28 289.811 164.112C289.811 164.933 289.667 165.648 289.379 166.256C289.101 166.853 288.701 167.317 288.179 167.648C287.667 167.979 287.064 168.144 286.371 168.144ZM286.099 167.104C286.824 167.104 287.405 166.848 287.843 166.336C288.28 165.813 288.499 165.072 288.499 164.112C288.499 163.141 288.28 162.4 287.843 161.888C287.405 161.376 286.824 161.12 286.099 161.12C285.373 161.12 284.792 161.376 284.355 161.888C283.917 162.4 283.699 163.141 283.699 164.112C283.699 165.072 283.917 165.813 284.355 166.336C284.792 166.848 285.373 167.104 286.099 167.104ZM295.267 168.144C294.04 168.144 293.07 167.787 292.355 167.072C291.64 166.347 291.283 165.365 291.283 164.128C291.283 163.328 291.443 162.624 291.763 162.016C292.083 161.397 292.52 160.923 293.075 160.592C293.64 160.251 294.291 160.08 295.027 160.08C296.083 160.08 296.91 160.421 297.507 161.104C298.104 161.776 298.403 162.704 298.403 163.888V164.384H292.547C292.59 165.269 292.846 165.947 293.315 166.416C293.784 166.875 294.435 167.104 295.267 167.104C295.736 167.104 296.184 167.035 296.611 166.896C297.038 166.747 297.443 166.507 297.827 166.176L298.275 167.088C297.923 167.419 297.475 167.68 296.931 167.872C296.387 168.053 295.832 168.144 295.267 168.144ZM295.059 161.04C294.323 161.04 293.742 161.269 293.315 161.728C292.888 162.187 292.638 162.789 292.563 163.536H297.283C297.251 162.747 297.043 162.133 296.659 161.696C296.286 161.259 295.752 161.04 295.059 161.04ZM300.279 168V160.224H301.543V161.552C301.799 161.061 302.161 160.693 302.631 160.448C303.1 160.203 303.628 160.08 304.215 160.08C306.06 160.08 306.983 161.104 306.983 163.152V168H305.687V163.232C305.687 162.507 305.543 161.979 305.255 161.648C304.977 161.307 304.529 161.136 303.911 161.136C303.196 161.136 302.625 161.36 302.199 161.808C301.783 162.245 301.575 162.832 301.575 163.568V168H300.279ZM312.876 168.144C311.65 168.144 310.679 167.787 309.964 167.072C309.25 166.347 308.892 165.365 308.892 164.128C308.892 163.328 309.052 162.624 309.372 162.016C309.692 161.397 310.13 160.923 310.684 160.592C311.25 160.251 311.9 160.08 312.636 160.08C313.692 160.08 314.519 160.421 315.116 161.104C315.714 161.776 316.012 162.704 316.012 163.888V164.384H310.156C310.199 165.269 310.455 165.947 310.924 166.416C311.394 166.875 312.044 167.104 312.876 167.104C313.346 167.104 313.794 167.035 314.22 166.896C314.647 166.747 315.052 166.507 315.436 166.176L315.884 167.088C315.532 167.419 315.084 167.68 314.54 167.872C313.996 168.053 313.442 168.144 312.876 168.144ZM312.668 161.04C311.932 161.04 311.351 161.269 310.924 161.728C310.498 162.187 310.247 162.789 310.172 163.536H314.892C314.86 162.747 314.652 162.133 314.268 161.696C313.895 161.259 313.362 161.04 312.668 161.04ZM318.304 168V161.232H316.768V160.224H318.304V159.952C318.304 158.917 318.56 158.133 319.072 157.6C319.595 157.067 320.395 156.768 321.472 156.704L322.064 156.672L322.144 157.68L321.472 157.712C320.811 157.755 320.331 157.952 320.032 158.304C319.744 158.645 319.6 159.141 319.6 159.792V160.224H324.4V168H323.104V161.232H319.6V168H318.304ZM322.96 158.288V156.832H324.544V158.288H322.96ZM329.945 168.144C329.028 168.144 328.34 167.904 327.881 167.424C327.423 166.933 327.193 166.229 327.193 165.312V161.232H325.673V160.224H327.193V157.84H328.489V160.224H330.953V161.232H328.489V165.184C328.489 165.792 328.617 166.256 328.873 166.576C329.129 166.885 329.545 167.04 330.121 167.04C330.292 167.04 330.463 167.019 330.633 166.976C330.804 166.933 330.959 166.891 331.097 166.848L331.321 167.84C331.183 167.915 330.98 167.984 330.713 168.048C330.447 168.112 330.191 168.144 329.945 168.144ZM335.845 168.144C334.618 168.144 333.648 167.787 332.933 167.072C332.218 166.347 331.861 165.365 331.861 164.128C331.861 163.328 332.021 162.624 332.341 162.016C332.661 161.397 333.098 160.923 333.653 160.592C334.218 160.251 334.869 160.08 335.605 160.08C336.661 160.08 337.488 160.421 338.085 161.104C338.682 161.776 338.981 162.704 338.981 163.888V164.384H333.125C333.168 165.269 333.424 165.947 333.893 166.416C334.362 166.875 335.013 167.104 335.845 167.104C336.314 167.104 336.762 167.035 337.189 166.896C337.616 166.747 338.021 166.507 338.405 166.176L338.853 167.088C338.501 167.419 338.053 167.68 337.509 167.872C336.965 168.053 336.41 168.144 335.845 168.144ZM335.637 161.04C334.901 161.04 334.32 161.269 333.893 161.728C333.466 162.187 333.216 162.789 333.141 163.536H337.861C337.829 162.747 337.621 162.133 337.237 161.696C336.864 161.259 336.33 161.04 335.637 161.04ZM343.817 168.144C343.123 168.144 342.515 167.979 341.993 167.648C341.481 167.317 341.081 166.853 340.793 166.256C340.515 165.648 340.377 164.933 340.377 164.112C340.377 163.28 340.515 162.565 340.793 161.968C341.081 161.36 341.481 160.896 341.993 160.576C342.515 160.245 343.123 160.08 343.817 160.08C344.425 160.08 344.958 160.213 345.417 160.48C345.886 160.747 346.233 161.115 346.457 161.584V156.72H347.753V168H346.489V166.576C346.265 167.067 345.918 167.451 345.449 167.728C344.979 168.005 344.435 168.144 343.817 168.144ZM344.089 167.104C344.814 167.104 345.395 166.848 345.833 166.336C346.27 165.813 346.489 165.072 346.489 164.112C346.489 163.141 346.27 162.4 345.833 161.888C345.395 161.376 344.814 161.12 344.089 161.12C343.353 161.12 342.766 161.376 342.329 161.888C341.902 162.4 341.689 163.141 341.689 164.112C341.689 165.072 341.902 165.813 342.329 166.336C342.766 166.848 343.353 167.104 344.089 167.104Z" fill="#DEFF85"/>
<path d="M247.336 229.608C245.501 229.608 243.923 229.245 242.6 228.52C241.299 227.795 240.296 226.835 239.592 225.64C238.909 224.424 238.568 223.101 238.568 221.672H242.952C242.952 222.483 243.133 223.197 243.496 223.816C243.88 224.435 244.403 224.925 245.064 225.288C245.725 225.629 246.493 225.8 247.368 225.8C248.285 225.8 249.075 225.608 249.736 225.224C250.397 224.84 250.899 224.317 251.24 223.656C251.603 222.995 251.784 222.237 251.784 221.384C251.784 220.552 251.603 219.805 251.24 219.144C250.899 218.461 250.397 217.928 249.736 217.544C249.096 217.139 248.317 216.936 247.4 216.936C246.632 216.936 245.907 217.085 245.224 217.384C244.541 217.683 244.008 218.077 243.624 218.568H239.432L240.616 205.64H254.152V209.512H242.6L244.2 208.264L243.432 216.328L242.344 216.008C242.963 215.304 243.72 214.717 244.616 214.248C245.512 213.779 246.643 213.544 248.008 213.544C249.736 213.544 251.208 213.896 252.424 214.6C253.64 215.304 254.568 216.243 255.208 217.416C255.848 218.568 256.168 219.827 256.168 221.192V221.608C256.168 222.995 255.827 224.296 255.144 225.512C254.461 226.728 253.459 227.72 252.136 228.488C250.835 229.235 249.235 229.608 247.336 229.608ZM269.503 229.608C267.668 229.608 266.111 229.309 264.831 228.712C263.551 228.093 262.506 227.261 261.695 226.216C260.884 225.149 260.287 223.933 259.903 222.568C259.54 221.181 259.359 219.731 259.359 218.216V216.424C259.359 214.269 259.722 212.328 260.447 210.6C261.172 208.872 262.282 207.507 263.775 206.504C265.268 205.48 267.178 204.968 269.503 204.968C271.807 204.968 273.706 205.48 275.199 206.504C276.692 207.507 277.791 208.872 278.495 210.6C279.22 212.328 279.583 214.269 279.583 216.424V218.216C279.583 219.731 279.391 221.181 279.007 222.568C278.644 223.933 278.058 225.149 277.247 226.216C276.458 227.261 275.423 228.093 274.143 228.712C272.863 229.309 271.316 229.608 269.503 229.608ZM269.503 225.448C271.402 225.448 272.799 224.797 273.695 223.496C274.591 222.173 275.039 220.125 275.039 217.352C275.039 214.408 274.58 212.307 273.663 211.048C272.746 209.768 271.359 209.128 269.503 209.128C267.626 209.128 266.218 209.768 265.279 211.048C264.362 212.307 263.903 214.387 263.903 217.288C263.903 220.083 264.362 222.141 265.279 223.464C266.196 224.787 267.604 225.448 269.503 225.448ZM293.691 229.608C291.856 229.608 290.299 229.309 289.019 228.712C287.739 228.093 286.693 227.261 285.883 226.216C285.072 225.149 284.475 223.933 284.091 222.568C283.728 221.181 283.547 219.731 283.547 218.216V216.424C283.547 214.269 283.909 212.328 284.635 210.6C285.36 208.872 286.469 207.507 287.963 206.504C289.456 205.48 291.365 204.968 293.691 204.968C295.995 204.968 297.893 205.48 299.387 206.504C300.88 207.507 301.979 208.872 302.683 210.6C303.408 212.328 303.771 214.269 303.771 216.424V218.216C303.771 219.731 303.579 221.181 303.195 222.568C302.832 223.933 302.245 225.149 301.435 226.216C300.645 227.261 299.611 228.093 298.331 228.712C297.051 229.309 295.504 229.608 293.691 229.608ZM293.691 225.448C295.589 225.448 296.987 224.797 297.883 223.496C298.779 222.173 299.227 220.125 299.227 217.352C299.227 214.408 298.768 212.307 297.851 211.048C296.933 209.768 295.547 209.128 293.691 209.128C291.813 209.128 290.405 209.768 289.467 211.048C288.549 212.307 288.091 214.387 288.091 217.288C288.091 220.083 288.549 222.141 289.467 223.464C290.384 224.787 291.792 225.448 293.691 225.448ZM313.302 225.896V210.088H317.206V225.896H313.302ZM307.51 219.784V216.2H322.998V219.784H307.51Z" fill="#DEFF85"/>
<rect x="46.5" y="160.5" width="152" height="138" rx="23.5" fill="#8CC63F"/>
<rect x="46.5" y="160.5" width="152" height="138" rx="23.5" stroke="#0F6337"/>
<path d="M74.848 200L69.824 188.72H72.016L75.744 197.376L79.472 188.72H81.584L76.56 200H74.848ZM84.9986 200.16C84.188 200.16 83.484 199.995 82.8866 199.664C82.2893 199.333 81.8253 198.864 81.4946 198.256C81.164 197.637 80.9986 196.912 80.9986 196.08C80.9986 195.248 81.164 194.528 81.4946 193.92C81.8253 193.312 82.2893 192.843 82.8866 192.512C83.484 192.181 84.188 192.016 84.9986 192.016C85.8093 192.016 86.5133 192.181 87.1106 192.512C87.708 192.843 88.172 193.312 88.5026 193.92C88.8333 194.528 88.9986 195.248 88.9986 196.08C88.9986 196.912 88.8333 197.637 88.5026 198.256C88.172 198.864 87.708 199.333 87.1106 199.664C86.5133 199.995 85.8093 200.16 84.9986 200.16ZM84.9986 198.64C85.596 198.64 86.076 198.427 86.4386 198C86.8013 197.563 86.9826 196.923 86.9826 196.08C86.9826 195.227 86.8013 194.592 86.4386 194.176C86.076 193.749 85.596 193.536 84.9986 193.536C84.4013 193.536 83.9213 193.749 83.5586 194.176C83.196 194.592 83.0146 195.227 83.0146 196.08C83.0146 196.923 83.196 197.563 83.5586 198C83.9213 198.427 84.4013 198.64 84.9986 198.64ZM93.3694 200.16C92.4414 200.16 91.7534 199.909 91.3054 199.408C90.868 198.896 90.6494 198.149 90.6494 197.168V188.72H92.6494V197.072C92.6494 198.032 93.0547 198.512 93.8654 198.512C93.9827 198.512 94.1 198.507 94.2174 198.496C94.3347 198.485 94.4467 198.464 94.5534 198.432L94.5214 200.016C94.1374 200.112 93.7534 200.16 93.3694 200.16ZM98.5908 200.16C96.6708 200.16 95.7108 199.083 95.7108 196.928V192.176H97.7108V196.96C97.7108 197.515 97.8228 197.925 98.0468 198.192C98.2708 198.459 98.6281 198.592 99.1188 198.592C99.6521 198.592 100.089 198.411 100.431 198.048C100.772 197.675 100.943 197.184 100.943 196.576V192.176H102.943V200H100.991V198.832C100.468 199.717 99.6681 200.16 98.5908 200.16ZM105.024 200V192.176H106.976V193.392C107.243 192.944 107.6 192.603 108.048 192.368C108.507 192.133 109.019 192.016 109.584 192.016C111.43 192.016 112.352 193.088 112.352 195.232V200H110.352V195.328C110.352 194.72 110.235 194.277 110 194C109.776 193.723 109.424 193.584 108.944 193.584C108.358 193.584 107.888 193.771 107.536 194.144C107.195 194.507 107.024 194.992 107.024 195.6V200H105.024ZM117.968 200.16C115.898 200.16 114.864 199.136 114.864 197.088V193.68H113.36V192.176H114.864V189.84H116.864V192.176H119.232V193.68H116.864V196.976C116.864 197.488 116.976 197.872 117.2 198.128C117.424 198.384 117.786 198.512 118.288 198.512C118.437 198.512 118.592 198.496 118.752 198.464C118.912 198.421 119.077 198.379 119.248 198.336L119.552 199.808C119.36 199.915 119.114 200 118.816 200.064C118.528 200.128 118.245 200.16 117.968 200.16ZM124.302 200.16C123.417 200.16 122.654 199.995 122.014 199.664C121.374 199.333 120.878 198.864 120.526 198.256C120.185 197.648 120.014 196.928 120.014 196.096C120.014 195.285 120.18 194.576 120.51 193.968C120.852 193.36 121.316 192.885 121.902 192.544C122.5 192.192 123.177 192.016 123.934 192.016C125.044 192.016 125.918 192.368 126.558 193.072C127.209 193.776 127.534 194.736 127.534 195.952V196.544H121.934C122.084 197.941 122.884 198.64 124.334 198.64C124.772 198.64 125.209 198.576 125.646 198.448C126.084 198.309 126.484 198.096 126.846 197.808L127.406 199.152C127.033 199.461 126.564 199.707 125.998 199.888C125.433 200.069 124.868 200.16 124.302 200.16ZM124.014 193.376C123.428 193.376 122.953 193.557 122.59 193.92C122.228 194.283 122.009 194.773 121.934 195.392H125.87C125.828 194.741 125.646 194.245 125.326 193.904C125.017 193.552 124.58 193.376 124.014 193.376ZM132.974 200.16C132.089 200.16 131.326 199.995 130.686 199.664C130.046 199.333 129.55 198.864 129.198 198.256C128.857 197.648 128.686 196.928 128.686 196.096C128.686 195.285 128.851 194.576 129.182 193.968C129.523 193.36 129.987 192.885 130.574 192.544C131.171 192.192 131.849 192.016 132.606 192.016C133.715 192.016 134.59 192.368 135.23 193.072C135.881 193.776 136.206 194.736 136.206 195.952V196.544H130.606C130.755 197.941 131.555 198.64 133.006 198.64C133.443 198.64 133.881 198.576 134.318 198.448C134.755 198.309 135.155 198.096 135.518 197.808L136.078 199.152C135.705 199.461 135.235 199.707 134.67 199.888C134.105 200.069 133.539 200.16 132.974 200.16ZM132.686 193.376C132.099 193.376 131.625 193.557 131.262 193.92C130.899 194.283 130.681 194.773 130.606 195.392H134.542C134.499 194.741 134.318 194.245 133.998 193.904C133.689 193.552 133.251 193.376 132.686 193.376ZM137.79 200V192.176H139.742V193.552C140.126 192.624 140.947 192.112 142.206 192.016L142.814 191.968L142.942 193.664L141.79 193.776C140.478 193.904 139.822 194.576 139.822 195.792V200H137.79ZM146.842 200.16C146.18 200.16 145.562 200.08 144.986 199.92C144.41 199.76 143.93 199.531 143.546 199.232L144.058 197.92C144.452 198.187 144.895 198.395 145.386 198.544C145.876 198.683 146.367 198.752 146.858 198.752C147.37 198.752 147.748 198.667 147.994 198.496C148.25 198.315 148.378 198.08 148.378 197.792C148.378 197.344 148.047 197.056 147.386 196.928L145.786 196.624C144.431 196.368 143.754 195.664 143.754 194.512C143.754 194 143.892 193.557 144.17 193.184C144.458 192.811 144.852 192.523 145.354 192.32C145.855 192.117 146.431 192.016 147.082 192.016C147.636 192.016 148.17 192.096 148.682 192.256C149.194 192.405 149.631 192.635 149.994 192.944L149.45 194.256C149.14 194 148.767 193.797 148.33 193.648C147.903 193.499 147.492 193.424 147.098 193.424C146.575 193.424 146.186 193.515 145.93 193.696C145.684 193.877 145.562 194.117 145.562 194.416C145.562 194.885 145.866 195.173 146.474 195.28L148.074 195.584C148.767 195.712 149.29 195.947 149.642 196.288C150.004 196.629 150.186 197.088 150.186 197.664C150.186 198.443 149.882 199.056 149.274 199.504C148.666 199.941 147.855 200.16 146.842 200.16Z" fill="#0B301A"/>
<path d="M85.2205 265V241.888L86.8045 243.112H79.8565V238.72H90.2965V265H85.2205ZM107.498 265.684C105.434 265.684 103.682 265.348 102.242 264.676C100.802 263.98 99.6255 263.044 98.7135 261.868C97.8015 260.668 97.1295 259.3 96.6975 257.764C96.2895 256.204 96.0855 254.572 96.0855 252.868V250.852C96.0855 248.428 96.4935 246.244 97.3095 244.3C98.1255 242.356 99.3735 240.82 101.054 239.692C102.734 238.54 104.882 237.964 107.498 237.964C110.09 237.964 112.226 238.54 113.906 239.692C115.586 240.82 116.822 242.356 117.614 244.3C118.43 246.244 118.838 248.428 118.838 250.852V252.868C118.838 254.572 118.622 256.204 118.19 257.764C117.782 259.3 117.122 260.668 116.21 261.868C115.322 263.044 114.158 263.98 112.718 264.676C111.278 265.348 109.538 265.684 107.498 265.684ZM107.498 261.004C109.634 261.004 111.206 260.272 112.214 258.808C113.222 257.32 113.726 255.016 113.726 251.896C113.726 248.584 113.21 246.22 112.178 244.804C111.146 243.364 109.586 242.644 107.498 242.644C105.386 242.644 103.802 243.364 102.746 244.804C101.714 246.22 101.198 248.56 101.198 251.824C101.198 254.968 101.714 257.284 102.746 258.772C103.778 260.26 105.362 261.004 107.498 261.004ZM129.56 261.508V243.724H133.952V261.508H129.56ZM123.044 254.632V250.6H140.468V254.632H123.044Z" fill="#0B301A"/>
</svg>
