<svg width="398" height="426" viewBox="0 0 398 426" fill="none" xmlns="http://www.w3.org/2000/svg">
<rect y="268" width="398" height="158" rx="24" fill="#AFD8BA"/>
<path d="M151.392 320V308.72H155.2C157.024 308.72 158.432 309.205 159.424 310.176C160.416 311.136 160.912 312.528 160.912 314.352C160.912 316.176 160.416 317.573 159.424 318.544C158.432 319.515 157.024 320 155.2 320H151.392ZM152.704 318.88H155.104C158.048 318.88 159.52 317.371 159.52 314.352C159.52 311.344 158.048 309.84 155.104 309.84H152.704V318.88ZM166.323 320.144C165.566 320.144 164.91 319.979 164.355 319.648C163.8 319.317 163.368 318.853 163.059 318.256C162.76 317.648 162.611 316.933 162.611 316.112C162.611 315.291 162.76 314.581 163.059 313.984C163.368 313.376 163.8 312.907 164.355 312.576C164.91 312.245 165.566 312.08 166.323 312.08C167.07 312.08 167.72 312.245 168.275 312.576C168.84 312.907 169.272 313.376 169.571 313.984C169.88 314.581 170.035 315.291 170.035 316.112C170.035 316.933 169.88 317.648 169.571 318.256C169.272 318.853 168.84 319.317 168.275 319.648C167.72 319.979 167.07 320.144 166.323 320.144ZM166.323 319.104C167.048 319.104 167.63 318.848 168.067 318.336C168.504 317.813 168.723 317.072 168.723 316.112C168.723 315.141 168.504 314.4 168.067 313.888C167.63 313.376 167.048 313.12 166.323 313.12C165.587 313.12 165 313.376 164.563 313.888C164.136 314.4 163.923 315.141 163.923 316.112C163.923 317.072 164.136 317.813 164.563 318.336C165 318.848 165.587 319.104 166.323 319.104ZM171.982 320V312.224H173.246V313.552C173.502 313.061 173.864 312.693 174.334 312.448C174.803 312.203 175.331 312.08 175.918 312.08C177.763 312.08 178.686 313.104 178.686 315.152V320H177.39V315.232C177.39 314.507 177.246 313.979 176.958 313.648C176.68 313.307 176.232 313.136 175.614 313.136C174.899 313.136 174.328 313.36 173.902 313.808C173.486 314.245 173.278 314.832 173.278 315.568V320H171.982ZM183.523 320.144C182.99 320.144 182.51 320.043 182.083 319.84C181.667 319.627 181.337 319.339 181.091 318.976C180.846 318.613 180.723 318.208 180.723 317.76C180.723 317.195 180.867 316.747 181.155 316.416C181.454 316.085 181.939 315.851 182.611 315.712C183.294 315.563 184.222 315.488 185.395 315.488H185.907V314.992C185.907 314.331 185.769 313.856 185.491 313.568C185.225 313.269 184.793 313.12 184.195 313.12C183.726 313.12 183.273 313.189 182.835 313.328C182.398 313.456 181.95 313.669 181.491 313.968L181.043 313.024C181.449 312.736 181.939 312.507 182.515 312.336C183.102 312.165 183.662 312.08 184.195 312.08C185.198 312.08 185.939 312.325 186.419 312.816C186.91 313.307 187.155 314.069 187.155 315.104V320H185.939V318.656C185.737 319.115 185.422 319.477 184.995 319.744C184.579 320.011 184.089 320.144 183.523 320.144ZM183.731 319.168C184.371 319.168 184.894 318.949 185.299 318.512C185.705 318.064 185.907 317.499 185.907 316.816V316.336H185.411C184.547 316.336 183.865 316.379 183.363 316.464C182.873 316.539 182.526 316.677 182.323 316.88C182.131 317.072 182.035 317.339 182.035 317.68C182.035 318.117 182.185 318.475 182.483 318.752C182.793 319.029 183.209 319.168 183.731 319.168ZM192.68 320.144C191.762 320.144 191.074 319.904 190.616 319.424C190.157 318.933 189.928 318.229 189.928 317.312V313.232H188.408V312.224H189.928V309.84H191.224V312.224H193.688V313.232H191.224V317.184C191.224 317.792 191.352 318.256 191.608 318.576C191.864 318.885 192.28 319.04 192.856 319.04C193.026 319.04 193.197 319.019 193.368 318.976C193.538 318.933 193.693 318.891 193.832 318.848L194.056 319.84C193.917 319.915 193.714 319.984 193.448 320.048C193.181 320.112 192.925 320.144 192.68 320.144ZM194.993 310.288V308.832H196.594V310.288H194.993ZM195.154 320V312.224H196.45V320H195.154ZM202.104 320.144C201.347 320.144 200.691 319.979 200.136 319.648C199.582 319.317 199.15 318.853 198.84 318.256C198.542 317.648 198.392 316.933 198.392 316.112C198.392 315.291 198.542 314.581 198.84 313.984C199.15 313.376 199.582 312.907 200.136 312.576C200.691 312.245 201.347 312.08 202.104 312.08C202.851 312.08 203.502 312.245 204.056 312.576C204.622 312.907 205.054 313.376 205.352 313.984C205.662 314.581 205.816 315.291 205.816 316.112C205.816 316.933 205.662 317.648 205.352 318.256C205.054 318.853 204.622 319.317 204.056 319.648C203.502 319.979 202.851 320.144 202.104 320.144ZM202.104 319.104C202.83 319.104 203.411 318.848 203.848 318.336C204.286 317.813 204.504 317.072 204.504 316.112C204.504 315.141 204.286 314.4 203.848 313.888C203.411 313.376 202.83 313.12 202.104 313.12C201.368 313.12 200.782 313.376 200.344 313.888C199.918 314.4 199.704 315.141 199.704 316.112C199.704 317.072 199.918 317.813 200.344 318.336C200.782 318.848 201.368 319.104 202.104 319.104ZM207.763 320V312.224H209.027V313.552C209.283 313.061 209.646 312.693 210.115 312.448C210.584 312.203 211.112 312.08 211.699 312.08C213.544 312.08 214.467 313.104 214.467 315.152V320H213.171V315.232C213.171 314.507 213.027 313.979 212.739 313.648C212.462 313.307 212.014 313.136 211.395 313.136C210.68 313.136 210.11 313.36 209.683 313.808C209.267 314.245 209.059 314.832 209.059 315.568V320H207.763ZM219.481 320.144C218.873 320.144 218.297 320.059 217.753 319.888C217.209 319.717 216.761 319.477 216.409 319.168L216.825 318.256C217.209 318.565 217.63 318.795 218.089 318.944C218.558 319.083 219.033 319.152 219.513 319.152C220.121 319.152 220.579 319.04 220.889 318.816C221.198 318.592 221.353 318.288 221.353 317.904C221.353 317.605 221.251 317.371 221.049 317.2C220.846 317.019 220.526 316.88 220.089 316.784L218.633 316.464C217.31 316.176 216.649 315.493 216.649 314.416C216.649 313.712 216.926 313.147 217.481 312.72C218.046 312.293 218.782 312.08 219.689 312.08C220.222 312.08 220.729 312.165 221.209 312.336C221.699 312.496 222.105 312.736 222.425 313.056L221.993 313.968C221.683 313.68 221.321 313.461 220.905 313.312C220.499 313.152 220.094 313.072 219.689 313.072C219.091 313.072 218.638 313.189 218.329 313.424C218.019 313.659 217.865 313.968 217.865 314.352C217.865 314.949 218.259 315.333 219.049 315.504L220.505 315.808C221.187 315.957 221.705 316.197 222.057 316.528C222.409 316.848 222.585 317.285 222.585 317.84C222.585 318.555 222.302 319.12 221.737 319.536C221.171 319.941 220.419 320.144 219.481 320.144Z" fill="#042714"/>
<path d="M82.339 381.096C80.3337 381.096 78.6483 380.797 77.283 380.2C75.939 379.581 74.915 378.717 74.211 377.608C73.5283 376.477 73.187 375.144 73.187 373.608H77.283C77.283 374.269 77.4537 374.899 77.795 375.496C78.1363 376.093 78.6697 376.584 79.395 376.968C80.1417 377.331 81.123 377.512 82.339 377.512C83.939 377.512 85.155 377.203 85.987 376.584C86.819 375.965 87.235 375.197 87.235 374.28C87.235 373.448 86.8723 372.755 86.147 372.2C85.443 371.645 84.3443 371.304 82.851 371.176L81.059 371.016C78.8617 370.803 77.1123 370.141 75.811 369.032C74.5097 367.901 73.859 366.301 73.859 364.232C73.859 362.803 74.179 361.597 74.819 360.616C75.4803 359.635 76.419 358.899 77.635 358.408C78.8723 357.896 80.3337 357.64 82.019 357.64C83.7683 357.64 85.251 357.928 86.467 358.504C87.7043 359.08 88.643 359.912 89.283 361C89.9443 362.067 90.275 363.368 90.275 364.904H86.179C86.179 364.243 86.019 363.635 85.699 363.08C85.4003 362.525 84.9417 362.077 84.323 361.736C83.7257 361.395 82.9577 361.224 82.019 361.224C81.1657 361.224 80.4403 361.352 79.843 361.608C79.2457 361.864 78.787 362.216 78.467 362.664C78.147 363.112 77.987 363.635 77.987 364.232C77.987 364.979 78.2537 365.64 78.787 366.216C79.3417 366.792 80.227 367.133 81.443 367.24L83.235 367.4C85.6883 367.613 87.651 368.296 89.123 369.448C90.6163 370.6 91.363 372.211 91.363 374.28C91.363 375.709 91.0003 376.936 90.275 377.96C89.571 378.963 88.547 379.741 87.203 380.296C85.859 380.829 84.2377 381.096 82.339 381.096ZM80.387 385.128V380.456H84.099V385.128H80.387ZM80.259 359.208V354.536H83.971V359.208H80.259ZM100.841 376.168V371.24L109.993 357L113.417 359.336L105.353 371.944L105.737 372.584H120.073V376.168H100.841ZM113.065 381V364.264H117.257V381H113.065ZM124.685 386.312L121.229 385L124.493 375.72L128.205 377.096L124.685 386.312ZM141.534 381.608C139.7 381.608 138.142 381.309 136.862 380.712C135.582 380.093 134.537 379.261 133.726 378.216C132.916 377.149 132.318 375.933 131.934 374.568C131.572 373.181 131.39 371.731 131.39 370.216V368.424C131.39 366.269 131.753 364.328 132.478 362.6C133.204 360.872 134.313 359.507 135.806 358.504C137.3 357.48 139.209 356.968 141.534 356.968C143.838 356.968 145.737 357.48 147.23 358.504C148.724 359.507 149.822 360.872 150.526 362.6C151.252 364.328 151.614 366.269 151.614 368.424V370.216C151.614 371.731 151.422 373.181 151.038 374.568C150.676 375.933 150.089 377.149 149.278 378.216C148.489 379.261 147.454 380.093 146.174 380.712C144.894 381.309 143.348 381.608 141.534 381.608ZM141.534 377.448C143.433 377.448 144.83 376.797 145.726 375.496C146.622 374.173 147.07 372.125 147.07 369.352C147.07 366.408 146.612 364.307 145.694 363.048C144.777 361.768 143.39 361.128 141.534 361.128C139.657 361.128 138.249 361.768 137.31 363.048C136.393 364.307 135.934 366.387 135.934 369.288C135.934 372.083 136.393 374.141 137.31 375.464C138.228 376.787 139.636 377.448 141.534 377.448ZM165.722 381.608C163.887 381.608 162.33 381.309 161.05 380.712C159.77 380.093 158.724 379.261 157.914 378.216C157.103 377.149 156.506 375.933 156.122 374.568C155.759 373.181 155.578 371.731 155.578 370.216V368.424C155.578 366.269 155.94 364.328 156.666 362.6C157.391 360.872 158.5 359.507 159.994 358.504C161.487 357.48 163.396 356.968 165.722 356.968C168.026 356.968 169.924 357.48 171.418 358.504C172.911 359.507 174.01 360.872 174.714 362.6C175.439 364.328 175.802 366.269 175.802 368.424V370.216C175.802 371.731 175.61 373.181 175.226 374.568C174.863 375.933 174.276 377.149 173.466 378.216C172.676 379.261 171.642 380.093 170.362 380.712C169.082 381.309 167.535 381.608 165.722 381.608ZM165.722 377.448C167.62 377.448 169.018 376.797 169.914 375.496C170.81 374.173 171.258 372.125 171.258 369.352C171.258 366.408 170.799 364.307 169.882 363.048C168.964 361.768 167.578 361.128 165.722 361.128C163.844 361.128 162.436 361.768 161.498 363.048C160.58 364.307 160.122 366.387 160.122 369.288C160.122 372.083 160.58 374.141 161.498 375.464C162.415 376.787 163.823 377.448 165.722 377.448ZM189.909 381.608C188.075 381.608 186.517 381.309 185.237 380.712C183.957 380.093 182.912 379.261 182.101 378.216C181.291 377.149 180.693 375.933 180.309 374.568C179.947 373.181 179.765 371.731 179.765 370.216V368.424C179.765 366.269 180.128 364.328 180.853 362.6C181.579 360.872 182.688 359.507 184.181 358.504C185.675 357.48 187.584 356.968 189.909 356.968C192.213 356.968 194.112 357.48 195.605 358.504C197.099 359.507 198.197 360.872 198.901 362.6C199.627 364.328 199.989 366.269 199.989 368.424V370.216C199.989 371.731 199.797 373.181 199.413 374.568C199.051 375.933 198.464 377.149 197.653 378.216C196.864 379.261 195.829 380.093 194.549 380.712C193.269 381.309 191.723 381.608 189.909 381.608ZM189.909 377.448C191.808 377.448 193.205 376.797 194.101 375.496C194.997 374.173 195.445 372.125 195.445 369.352C195.445 366.408 194.987 364.307 194.069 363.048C193.152 361.768 191.765 361.128 189.909 361.128C188.032 361.128 186.624 361.768 185.685 363.048C184.768 364.307 184.309 366.387 184.309 369.288C184.309 372.083 184.768 374.141 185.685 375.464C186.603 376.787 188.011 377.448 189.909 377.448ZM205.841 386.312L202.385 385L205.649 375.72L209.361 377.096L205.841 386.312ZM222.691 381.608C220.856 381.608 219.299 381.309 218.019 380.712C216.739 380.093 215.693 379.261 214.883 378.216C214.072 377.149 213.475 375.933 213.091 374.568C212.728 373.181 212.547 371.731 212.547 370.216V368.424C212.547 366.269 212.909 364.328 213.635 362.6C214.36 360.872 215.469 359.507 216.963 358.504C218.456 357.48 220.365 356.968 222.691 356.968C224.995 356.968 226.893 357.48 228.387 358.504C229.88 359.507 230.979 360.872 231.683 362.6C232.408 364.328 232.771 366.269 232.771 368.424V370.216C232.771 371.731 232.579 373.181 232.195 374.568C231.832 375.933 231.245 377.149 230.435 378.216C229.645 379.261 228.611 380.093 227.331 380.712C226.051 381.309 224.504 381.608 222.691 381.608ZM222.691 377.448C224.589 377.448 225.987 376.797 226.883 375.496C227.779 374.173 228.227 372.125 228.227 369.352C228.227 366.408 227.768 364.307 226.851 363.048C225.933 361.768 224.547 361.128 222.691 361.128C220.813 361.128 219.405 361.768 218.467 363.048C217.549 364.307 217.091 366.387 217.091 369.288C217.091 372.083 217.549 374.141 218.467 375.464C219.384 376.787 220.792 377.448 222.691 377.448ZM246.878 381.608C245.043 381.608 243.486 381.309 242.206 380.712C240.926 380.093 239.881 379.261 239.07 378.216C238.259 377.149 237.662 375.933 237.278 374.568C236.915 373.181 236.734 371.731 236.734 370.216V368.424C236.734 366.269 237.097 364.328 237.822 362.6C238.547 360.872 239.657 359.507 241.15 358.504C242.643 357.48 244.553 356.968 246.878 356.968C249.182 356.968 251.081 357.48 252.574 358.504C254.067 359.507 255.166 360.872 255.87 362.6C256.595 364.328 256.958 366.269 256.958 368.424V370.216C256.958 371.731 256.766 373.181 256.382 374.568C256.019 375.933 255.433 377.149 254.622 378.216C253.833 379.261 252.798 380.093 251.518 380.712C250.238 381.309 248.691 381.608 246.878 381.608ZM246.878 377.448C248.777 377.448 250.174 376.797 251.07 375.496C251.966 374.173 252.414 372.125 252.414 369.352C252.414 366.408 251.955 364.307 251.038 363.048C250.121 361.768 248.734 361.128 246.878 361.128C245.001 361.128 243.593 361.768 242.654 363.048C241.737 364.307 241.278 366.387 241.278 369.288C241.278 372.083 241.737 374.141 242.654 375.464C243.571 376.787 244.979 377.448 246.878 377.448ZM271.066 381.608C269.231 381.608 267.674 381.309 266.394 380.712C265.114 380.093 264.068 379.261 263.258 378.216C262.447 377.149 261.85 375.933 261.466 374.568C261.103 373.181 260.922 371.731 260.922 370.216V368.424C260.922 366.269 261.284 364.328 262.01 362.6C262.735 360.872 263.844 359.507 265.338 358.504C266.831 357.48 268.74 356.968 271.066 356.968C273.37 356.968 275.268 357.48 276.762 358.504C278.255 359.507 279.354 360.872 280.058 362.6C280.783 364.328 281.146 366.269 281.146 368.424V370.216C281.146 371.731 280.954 373.181 280.57 374.568C280.207 375.933 279.62 377.149 278.81 378.216C278.02 379.261 276.986 380.093 275.706 380.712C274.426 381.309 272.879 381.608 271.066 381.608ZM271.066 377.448C272.964 377.448 274.362 376.797 275.258 375.496C276.154 374.173 276.602 372.125 276.602 369.352C276.602 366.408 276.143 364.307 275.226 363.048C274.308 361.768 272.922 361.128 271.066 361.128C269.188 361.128 267.78 361.768 266.842 363.048C265.924 364.307 265.466 366.387 265.466 369.288C265.466 372.083 265.924 374.141 266.842 375.464C267.759 376.787 269.167 377.448 271.066 377.448ZM290.677 377.896V362.088H294.581V377.896H290.677ZM284.885 371.784V368.2H300.373V371.784H284.885Z" fill="#042714"/>
<rect x="0.5" y="3.5" width="259" height="165" rx="23.5" fill="#0B301A"/>
<rect x="0.5" y="3.5" width="259" height="165" rx="23.5" stroke="#CFE9D6"/>
<path d="M63.512 57V44.31H65.078L69.776 53.076L74.456 44.31H75.986V57H74.312V47.694L70.334 55.056H69.2L65.204 47.73V57H63.512ZM82.9039 57.162C81.4639 57.162 80.3299 56.76 79.5019 55.956C78.6739 55.14 78.2599 54.03 78.2599 52.626C78.2599 51.726 78.4399 50.934 78.7999 50.25C79.1719 49.554 79.6819 49.014 80.3299 48.63C80.9779 48.246 81.7219 48.054 82.5619 48.054C83.7739 48.054 84.7279 48.444 85.4239 49.224C86.1199 49.992 86.4679 51.054 86.4679 52.41V53.022H80.0239C80.1559 54.846 81.1219 55.758 82.9219 55.758C83.4259 55.758 83.9179 55.68 84.3979 55.524C84.8899 55.368 85.3519 55.11 85.7839 54.75L86.3239 56.01C85.9279 56.37 85.4179 56.652 84.7939 56.856C84.1699 57.06 83.5399 57.162 82.9039 57.162ZM82.6339 49.332C81.8779 49.332 81.2779 49.566 80.8339 50.034C80.3899 50.502 80.1199 51.126 80.0239 51.906H84.9379C84.9019 51.09 84.6859 50.46 84.2899 50.016C83.8939 49.56 83.3419 49.332 82.6339 49.332ZM91.2579 57.162C90.6459 57.162 90.0999 57.042 89.6199 56.802C89.1399 56.562 88.7559 56.238 88.4679 55.83C88.1919 55.422 88.0539 54.96 88.0539 54.444C88.0539 53.796 88.2159 53.286 88.5399 52.914C88.8759 52.542 89.4219 52.272 90.1779 52.104C90.9459 51.936 91.9779 51.852 93.2739 51.852H93.8859V51.384C93.8859 50.7 93.7419 50.208 93.4539 49.908C93.1659 49.608 92.6919 49.458 92.0319 49.458C91.5279 49.458 91.0239 49.536 90.5199 49.692C90.0159 49.836 89.4999 50.07 88.9719 50.394L88.4139 49.116C88.8699 48.792 89.4399 48.534 90.1239 48.342C90.8079 48.15 91.4619 48.054 92.0859 48.054C93.2859 48.054 94.1739 48.342 94.7499 48.918C95.3259 49.482 95.6139 50.37 95.6139 51.582V57H93.9039V55.542C93.6879 56.046 93.3519 56.442 92.8959 56.73C92.4399 57.018 91.8939 57.162 91.2579 57.162ZM91.6179 55.866C92.2659 55.866 92.8059 55.638 93.2379 55.182C93.6699 54.726 93.8859 54.15 93.8859 53.454V52.968H93.2919C92.4159 52.968 91.7259 53.01 91.2219 53.094C90.7299 53.178 90.3759 53.322 90.1599 53.526C89.9559 53.718 89.8539 53.988 89.8539 54.336C89.8539 54.792 90.0099 55.164 90.3219 55.452C90.6339 55.728 91.0659 55.866 91.6179 55.866ZM100.98 57.162C100.02 57.162 99.2998 56.892 98.8198 56.352C98.3518 55.812 98.1178 55.02 98.1178 53.976V44.31H99.9358V53.868C99.9358 55.056 100.422 55.65 101.394 55.65C101.538 55.65 101.67 55.644 101.79 55.632C101.922 55.62 102.054 55.596 102.186 55.56L102.15 57.018C101.742 57.114 101.352 57.162 100.98 57.162ZM106.61 57.162C105.89 57.162 105.218 57.072 104.594 56.892C103.97 56.7 103.448 56.436 103.028 56.1L103.55 54.876C103.994 55.188 104.48 55.428 105.008 55.596C105.548 55.764 106.088 55.848 106.628 55.848C107.264 55.848 107.744 55.734 108.068 55.506C108.392 55.278 108.554 54.972 108.554 54.588C108.554 54.276 108.446 54.036 108.23 53.868C108.014 53.688 107.69 53.55 107.258 53.454L105.548 53.112C104.036 52.8 103.28 52.02 103.28 50.772C103.28 49.944 103.61 49.284 104.27 48.792C104.93 48.3 105.794 48.054 106.862 48.054C107.474 48.054 108.056 48.144 108.608 48.324C109.172 48.504 109.64 48.774 110.012 49.134L109.49 50.358C109.13 50.046 108.716 49.806 108.248 49.638C107.78 49.47 107.318 49.386 106.862 49.386C106.238 49.386 105.764 49.506 105.44 49.746C105.116 49.974 104.954 50.286 104.954 50.682C104.954 51.282 105.35 51.666 106.142 51.834L107.852 52.176C108.632 52.332 109.22 52.596 109.616 52.968C110.024 53.34 110.228 53.844 110.228 54.48C110.228 55.32 109.898 55.98 109.238 56.46C108.578 56.928 107.702 57.162 106.61 57.162ZM121.407 57.162C120.411 57.162 119.499 57.036 118.671 56.784C117.843 56.52 117.141 56.154 116.565 55.686L117.159 54.21C117.759 54.666 118.401 55.008 119.085 55.236C119.769 55.464 120.543 55.578 121.407 55.578C122.427 55.578 123.177 55.398 123.657 55.038C124.149 54.666 124.395 54.186 124.395 53.598C124.395 53.118 124.221 52.74 123.873 52.464C123.525 52.176 122.943 51.948 122.127 51.78L120.201 51.384C119.061 51.144 118.209 50.748 117.645 50.196C117.093 49.644 116.817 48.9 116.817 47.964C116.817 47.208 117.015 46.542 117.411 45.966C117.819 45.39 118.383 44.946 119.103 44.634C119.823 44.31 120.651 44.148 121.587 44.148C122.451 44.148 123.249 44.28 123.981 44.544C124.725 44.796 125.355 45.168 125.871 45.66L125.259 47.082C124.239 46.182 123.009 45.732 121.569 45.732C120.681 45.732 119.973 45.93 119.445 46.326C118.929 46.722 118.671 47.25 118.671 47.91C118.671 48.414 118.833 48.816 119.157 49.116C119.481 49.416 120.021 49.644 120.777 49.8L122.685 50.196C123.885 50.448 124.779 50.838 125.367 51.366C125.955 51.882 126.249 52.584 126.249 53.472C126.249 54.216 126.051 54.864 125.655 55.416C125.259 55.968 124.701 56.4 123.981 56.712C123.261 57.012 122.403 57.162 121.407 57.162ZM132.298 57.162C130.858 57.162 129.724 56.76 128.896 55.956C128.068 55.14 127.654 54.03 127.654 52.626C127.654 51.726 127.834 50.934 128.194 50.25C128.566 49.554 129.076 49.014 129.724 48.63C130.372 48.246 131.116 48.054 131.956 48.054C133.168 48.054 134.122 48.444 134.818 49.224C135.514 49.992 135.862 51.054 135.862 52.41V53.022H129.418C129.55 54.846 130.516 55.758 132.316 55.758C132.82 55.758 133.312 55.68 133.792 55.524C134.284 55.368 134.746 55.11 135.178 54.75L135.718 56.01C135.322 56.37 134.812 56.652 134.188 56.856C133.564 57.06 132.934 57.162 132.298 57.162ZM132.028 49.332C131.272 49.332 130.672 49.566 130.228 50.034C129.784 50.502 129.514 51.126 129.418 51.906H134.332C134.296 51.09 134.08 50.46 133.684 50.016C133.288 49.56 132.736 49.332 132.028 49.332ZM137.844 57V48.216H139.608V49.782C140.064 48.738 141.012 48.156 142.452 48.036L143.046 48L143.172 49.548L142.074 49.656C140.478 49.812 139.68 50.634 139.68 52.122V57H137.844ZM147.678 57L143.898 48.216H145.86L148.542 54.894L151.296 48.216H153.15L149.316 57H147.678ZM158.42 57.162C156.98 57.162 155.846 56.76 155.018 55.956C154.19 55.14 153.776 54.03 153.776 52.626C153.776 51.726 153.956 50.934 154.316 50.25C154.688 49.554 155.198 49.014 155.846 48.63C156.494 48.246 157.238 48.054 158.078 48.054C159.29 48.054 160.244 48.444 160.94 49.224C161.636 49.992 161.984 51.054 161.984 52.41V53.022H155.54C155.672 54.846 156.638 55.758 158.438 55.758C158.942 55.758 159.434 55.68 159.914 55.524C160.406 55.368 160.868 55.11 161.3 54.75L161.84 56.01C161.444 56.37 160.934 56.652 160.31 56.856C159.686 57.06 159.056 57.162 158.42 57.162ZM158.15 49.332C157.394 49.332 156.794 49.566 156.35 50.034C155.906 50.502 155.636 51.126 155.54 51.906H160.454C160.418 51.09 160.202 50.46 159.806 50.016C159.41 49.56 158.858 49.332 158.15 49.332ZM167.313 57.162C166.546 57.162 165.868 56.982 165.28 56.622C164.704 56.25 164.254 55.722 163.93 55.038C163.606 54.354 163.444 53.544 163.444 52.608C163.444 51.672 163.606 50.868 163.93 50.196C164.254 49.512 164.704 48.984 165.28 48.612C165.856 48.24 166.534 48.054 167.313 48.054C167.974 48.054 168.562 48.198 169.078 48.486C169.594 48.774 169.978 49.164 170.23 49.656V44.31H172.048V57H170.266V55.47C170.014 55.998 169.624 56.412 169.096 56.712C168.58 57.012 167.986 57.162 167.313 57.162ZM167.782 55.758C168.526 55.758 169.126 55.488 169.582 54.948C170.038 54.408 170.266 53.628 170.266 52.608C170.266 51.588 170.038 50.814 169.582 50.286C169.126 49.746 168.526 49.476 167.782 49.476C167.026 49.476 166.42 49.746 165.964 50.286C165.508 50.814 165.28 51.588 165.28 52.608C165.28 53.628 165.508 54.408 165.964 54.948C166.42 55.488 167.026 55.758 167.782 55.758Z" fill="#CFE9D6"/>
<path d="M66.308 123.72C64.292 123.72 62.516 123.396 60.98 122.748C59.444 122.1 58.244 121.176 57.38 119.976C56.516 118.776 56.084 117.348 56.084 115.692C56.084 114.588 56.276 113.616 56.66 112.776C57.044 111.912 57.572 111.18 58.244 110.58C58.916 109.956 59.708 109.488 60.62 109.176V108.744C59.924 108.432 59.288 108.024 58.712 107.52C58.16 107.016 57.716 106.404 57.38 105.684C57.068 104.964 56.912 104.136 56.912 103.2C56.912 101.616 57.32 100.296 58.136 99.24C58.976 98.16 60.104 97.356 61.52 96.828C62.96 96.276 64.556 96 66.308 96C68.084 96 69.68 96.276 71.096 96.828C72.536 97.356 73.664 98.16 74.48 99.24C75.32 100.296 75.74 101.616 75.74 103.2C75.74 104.136 75.572 104.964 75.236 105.684C74.924 106.404 74.492 107.016 73.94 107.52C73.388 108.024 72.752 108.432 72.032 108.744V109.176C72.944 109.488 73.736 109.956 74.408 110.58C75.104 111.204 75.632 111.948 75.992 112.812C76.376 113.652 76.568 114.612 76.568 115.692C76.568 117.348 76.136 118.776 75.272 119.976C74.432 121.176 73.244 122.1 71.708 122.748C70.172 123.396 68.372 123.72 66.308 123.72ZM66.308 119.508C67.412 119.508 68.36 119.34 69.152 119.004C69.944 118.668 70.556 118.176 70.988 117.528C71.42 116.88 71.636 116.1 71.636 115.188C71.636 114.276 71.42 113.508 70.988 112.884C70.58 112.236 69.968 111.744 69.152 111.408C68.36 111.072 67.412 110.904 66.308 110.904C65.228 110.904 64.292 111.072 63.5 111.408C62.708 111.744 62.096 112.236 61.664 112.884C61.232 113.508 61.016 114.276 61.016 115.188C61.016 116.1 61.232 116.88 61.664 117.528C62.096 118.176 62.708 118.668 63.5 119.004C64.292 119.34 65.228 119.508 66.308 119.508ZM66.308 107.088C67.7 107.088 68.792 106.8 69.584 106.224C70.4 105.624 70.808 104.76 70.808 103.632C70.808 102.456 70.4 101.592 69.584 101.04C68.768 100.488 67.676 100.212 66.308 100.212C64.94 100.212 63.848 100.5 63.032 101.076C62.24 101.628 61.844 102.48 61.844 103.632C61.844 104.76 62.252 105.624 63.068 106.224C63.884 106.8 64.964 107.088 66.308 107.088ZM91.8042 123.684C89.7402 123.684 87.9882 123.348 86.5482 122.676C85.1082 121.98 83.9322 121.044 83.0202 119.868C82.1082 118.668 81.4362 117.3 81.0042 115.764C80.5962 114.204 80.3922 112.572 80.3922 110.868V108.852C80.3922 106.428 80.8002 104.244 81.6162 102.3C82.4322 100.356 83.6802 98.82 85.3602 97.692C87.0402 96.54 89.1882 95.964 91.8042 95.964C94.3962 95.964 96.5322 96.54 98.2122 97.692C99.8922 98.82 101.128 100.356 101.92 102.3C102.736 104.244 103.144 106.428 103.144 108.852V110.868C103.144 112.572 102.928 114.204 102.496 115.764C102.088 117.3 101.428 118.668 100.516 119.868C99.6282 121.044 98.4642 121.98 97.0242 122.676C95.5842 123.348 93.8442 123.684 91.8042 123.684ZM91.8042 119.004C93.9402 119.004 95.5122 118.272 96.5202 116.808C97.5282 115.32 98.0322 113.016 98.0322 109.896C98.0322 106.584 97.5162 104.22 96.4842 102.804C95.4522 101.364 93.8922 100.644 91.8042 100.644C89.6922 100.644 88.1082 101.364 87.0522 102.804C86.0202 104.22 85.5042 106.56 85.5042 109.824C85.5042 112.968 86.0202 115.284 87.0522 116.772C88.0842 118.26 89.6682 119.004 91.8042 119.004ZM119.015 123.684C116.951 123.684 115.199 123.348 113.759 122.676C112.319 121.98 111.143 121.044 110.231 119.868C109.319 118.668 108.647 117.3 108.215 115.764C107.807 114.204 107.603 112.572 107.603 110.868V108.852C107.603 106.428 108.011 104.244 108.827 102.3C109.643 100.356 110.891 98.82 112.571 97.692C114.251 96.54 116.399 95.964 119.015 95.964C121.607 95.964 123.743 96.54 125.423 97.692C127.103 98.82 128.339 100.356 129.131 102.3C129.947 104.244 130.355 106.428 130.355 108.852V110.868C130.355 112.572 130.139 114.204 129.707 115.764C129.299 117.3 128.639 118.668 127.727 119.868C126.839 121.044 125.675 121.98 124.235 122.676C122.795 123.348 121.055 123.684 119.015 123.684ZM119.015 119.004C121.151 119.004 122.723 118.272 123.731 116.808C124.739 115.32 125.243 113.016 125.243 109.896C125.243 106.584 124.727 104.22 123.695 102.804C122.663 101.364 121.103 100.644 119.015 100.644C116.903 100.644 115.319 101.364 114.263 102.804C113.231 104.22 112.715 106.56 112.715 109.824C112.715 112.968 113.231 115.284 114.263 116.772C115.295 118.26 116.879 119.004 119.015 119.004ZM146.226 123.684C144.162 123.684 142.41 123.348 140.97 122.676C139.53 121.98 138.354 121.044 137.442 119.868C136.53 118.668 135.858 117.3 135.426 115.764C135.018 114.204 134.814 112.572 134.814 110.868V108.852C134.814 106.428 135.222 104.244 136.038 102.3C136.854 100.356 138.102 98.82 139.782 97.692C141.462 96.54 143.61 95.964 146.226 95.964C148.818 95.964 150.954 96.54 152.634 97.692C154.314 98.82 155.55 100.356 156.342 102.3C157.158 104.244 157.566 106.428 157.566 108.852V110.868C157.566 112.572 157.35 114.204 156.918 115.764C156.51 117.3 155.85 118.668 154.938 119.868C154.05 121.044 152.886 121.98 151.446 122.676C150.006 123.348 148.266 123.684 146.226 123.684ZM146.226 119.004C148.362 119.004 149.934 118.272 150.942 116.808C151.95 115.32 152.454 113.016 152.454 109.896C152.454 106.584 151.938 104.22 150.906 102.804C149.874 101.364 148.314 100.644 146.226 100.644C144.114 100.644 142.53 101.364 141.474 102.804C140.442 104.22 139.926 106.56 139.926 109.824C139.926 112.968 140.442 115.284 141.474 116.772C142.506 118.26 144.09 119.004 146.226 119.004ZM168.289 119.508V101.724H172.681V119.508H168.289ZM161.773 112.632V108.6H179.197V112.632H161.773Z" fill="#CFE9D6"/>
<rect x="188" y="116" width="210" height="158" rx="24" fill="#225100"/>
<path d="M217.54 168.144C216.655 168.144 215.855 168.032 215.14 167.808C214.425 167.573 213.807 167.237 213.284 166.8L213.748 165.744C214.292 166.16 214.863 166.469 215.46 166.672C216.057 166.875 216.751 166.976 217.54 166.976C218.5 166.976 219.209 166.8 219.668 166.448C220.137 166.085 220.372 165.611 220.372 165.024C220.372 164.555 220.201 164.181 219.86 163.904C219.529 163.627 218.969 163.408 218.18 163.248L216.516 162.912C215.513 162.699 214.761 162.352 214.26 161.872C213.769 161.381 213.524 160.731 213.524 159.92C213.524 159.248 213.695 158.661 214.036 158.16C214.388 157.659 214.873 157.269 215.492 156.992C216.111 156.715 216.825 156.576 217.636 156.576C218.393 156.576 219.097 156.699 219.748 156.944C220.399 157.179 220.948 157.52 221.396 157.968L220.932 158.992C220.452 158.555 219.945 158.24 219.412 158.048C218.879 157.845 218.281 157.744 217.62 157.744C216.777 157.744 216.105 157.941 215.604 158.336C215.103 158.72 214.852 159.232 214.852 159.872C214.852 160.384 215.007 160.789 215.316 161.088C215.636 161.387 216.153 161.605 216.868 161.744L218.532 162.096C219.609 162.32 220.404 162.661 220.916 163.12C221.439 163.568 221.7 164.181 221.7 164.96C221.7 165.589 221.529 166.144 221.188 166.624C220.857 167.104 220.377 167.477 219.748 167.744C219.129 168.011 218.393 168.144 217.54 168.144ZM226.649 168.144C225.731 168.144 225.043 167.904 224.585 167.424C224.126 166.933 223.897 166.229 223.897 165.312V161.232H222.377V160.224H223.897V157.84H225.193V160.224H227.657V161.232H225.193V165.184C225.193 165.792 225.321 166.256 225.577 166.576C225.833 166.885 226.249 167.04 226.825 167.04C226.995 167.04 227.166 167.019 227.337 166.976C227.507 166.933 227.662 166.891 227.801 166.848L228.025 167.84C227.886 167.915 227.683 167.984 227.417 168.048C227.15 168.112 226.894 168.144 226.649 168.144ZM231.874 168.144C230.008 168.144 229.074 167.115 229.074 165.056V160.224H230.37V165.04C230.37 165.733 230.509 166.245 230.786 166.576C231.074 166.907 231.522 167.072 232.13 167.072C232.792 167.072 233.33 166.853 233.746 166.416C234.162 165.968 234.37 165.376 234.37 164.64V160.224H235.666V168H234.402V166.688C234.157 167.157 233.81 167.52 233.362 167.776C232.925 168.021 232.429 168.144 231.874 168.144ZM241.051 168.144C240.358 168.144 239.75 167.979 239.227 167.648C238.715 167.317 238.315 166.853 238.027 166.256C237.75 165.648 237.611 164.933 237.611 164.112C237.611 163.28 237.75 162.565 238.027 161.968C238.315 161.36 238.715 160.896 239.227 160.576C239.75 160.245 240.358 160.08 241.051 160.08C241.659 160.08 242.192 160.213 242.651 160.48C243.12 160.747 243.467 161.115 243.691 161.584V156.72H244.987V168H243.723V166.576C243.499 167.067 243.152 167.451 242.683 167.728C242.214 168.005 241.67 168.144 241.051 168.144ZM241.323 167.104C242.048 167.104 242.63 166.848 243.067 166.336C243.504 165.813 243.723 165.072 243.723 164.112C243.723 163.141 243.504 162.4 243.067 161.888C242.63 161.376 242.048 161.12 241.323 161.12C240.587 161.12 240 161.376 239.563 161.888C239.136 162.4 238.923 163.141 238.923 164.112C238.923 165.072 239.136 165.813 239.563 166.336C240 166.848 240.587 167.104 241.323 167.104ZM250.923 168.144C249.696 168.144 248.726 167.787 248.011 167.072C247.296 166.347 246.939 165.365 246.939 164.128C246.939 163.328 247.099 162.624 247.419 162.016C247.739 161.397 248.176 160.923 248.731 160.592C249.296 160.251 249.947 160.08 250.683 160.08C251.739 160.08 252.566 160.421 253.163 161.104C253.76 161.776 254.059 162.704 254.059 163.888V164.384H248.203C248.246 165.269 248.502 165.947 248.971 166.416C249.44 166.875 250.091 167.104 250.923 167.104C251.392 167.104 251.84 167.035 252.267 166.896C252.694 166.747 253.099 166.507 253.483 166.176L253.931 167.088C253.579 167.419 253.131 167.68 252.587 167.872C252.043 168.053 251.488 168.144 250.923 168.144ZM250.715 161.04C249.979 161.04 249.398 161.269 248.971 161.728C248.544 162.187 248.294 162.789 248.219 163.536H252.939C252.907 162.747 252.699 162.133 252.315 161.696C251.942 161.259 251.408 161.04 250.715 161.04ZM255.935 168V160.224H257.199V161.552C257.455 161.061 257.817 160.693 258.287 160.448C258.756 160.203 259.284 160.08 259.871 160.08C261.716 160.08 262.639 161.104 262.639 163.152V168H261.343V163.232C261.343 162.507 261.199 161.979 260.911 161.648C260.633 161.307 260.185 161.136 259.567 161.136C258.852 161.136 258.281 161.36 257.855 161.808C257.439 162.245 257.231 162.832 257.231 163.568V168H255.935ZM268.149 168.144C267.231 168.144 266.543 167.904 266.085 167.424C265.626 166.933 265.397 166.229 265.397 165.312V161.232H263.877V160.224H265.397V157.84H266.693V160.224H269.157V161.232H266.693V165.184C266.693 165.792 266.821 166.256 267.077 166.576C267.333 166.885 267.749 167.04 268.325 167.04C268.495 167.04 268.666 167.019 268.837 166.976C269.007 166.933 269.162 166.891 269.301 166.848L269.525 167.84C269.386 167.915 269.183 167.984 268.917 168.048C268.65 168.112 268.394 168.144 268.149 168.144ZM273.246 168.144C272.638 168.144 272.062 168.059 271.518 167.888C270.974 167.717 270.526 167.477 270.174 167.168L270.59 166.256C270.974 166.565 271.396 166.795 271.854 166.944C272.324 167.083 272.798 167.152 273.278 167.152C273.886 167.152 274.345 167.04 274.654 166.816C274.964 166.592 275.118 166.288 275.118 165.904C275.118 165.605 275.017 165.371 274.814 165.2C274.612 165.019 274.292 164.88 273.854 164.784L272.398 164.464C271.076 164.176 270.414 163.493 270.414 162.416C270.414 161.712 270.692 161.147 271.246 160.72C271.812 160.293 272.548 160.08 273.454 160.08C273.988 160.08 274.494 160.165 274.974 160.336C275.465 160.496 275.87 160.736 276.19 161.056L275.758 161.968C275.449 161.68 275.086 161.461 274.67 161.312C274.265 161.152 273.86 161.072 273.454 161.072C272.857 161.072 272.404 161.189 272.094 161.424C271.785 161.659 271.63 161.968 271.63 162.352C271.63 162.949 272.025 163.333 272.814 163.504L274.27 163.808C274.953 163.957 275.47 164.197 275.822 164.528C276.174 164.848 276.35 165.285 276.35 165.84C276.35 166.555 276.068 167.12 275.502 167.536C274.937 167.941 274.185 168.144 273.246 168.144ZM286.371 168.144C285.752 168.144 285.208 168.005 284.739 167.728C284.28 167.451 283.933 167.072 283.699 166.592V168H282.435V156.72H283.731V161.568C283.955 161.109 284.301 160.747 284.771 160.48C285.24 160.213 285.773 160.08 286.371 160.08C287.064 160.08 287.667 160.245 288.179 160.576C288.701 160.896 289.101 161.36 289.379 161.968C289.667 162.565 289.811 163.28 289.811 164.112C289.811 164.933 289.667 165.648 289.379 166.256C289.101 166.853 288.701 167.317 288.179 167.648C287.667 167.979 287.064 168.144 286.371 168.144ZM286.099 167.104C286.824 167.104 287.405 166.848 287.843 166.336C288.28 165.813 288.499 165.072 288.499 164.112C288.499 163.141 288.28 162.4 287.843 161.888C287.405 161.376 286.824 161.12 286.099 161.12C285.373 161.12 284.792 161.376 284.355 161.888C283.917 162.4 283.699 163.141 283.699 164.112C283.699 165.072 283.917 165.813 284.355 166.336C284.792 166.848 285.373 167.104 286.099 167.104ZM295.267 168.144C294.04 168.144 293.07 167.787 292.355 167.072C291.64 166.347 291.283 165.365 291.283 164.128C291.283 163.328 291.443 162.624 291.763 162.016C292.083 161.397 292.52 160.923 293.075 160.592C293.64 160.251 294.291 160.08 295.027 160.08C296.083 160.08 296.91 160.421 297.507 161.104C298.104 161.776 298.403 162.704 298.403 163.888V164.384H292.547C292.59 165.269 292.846 165.947 293.315 166.416C293.784 166.875 294.435 167.104 295.267 167.104C295.736 167.104 296.184 167.035 296.611 166.896C297.038 166.747 297.443 166.507 297.827 166.176L298.275 167.088C297.923 167.419 297.475 167.68 296.931 167.872C296.387 168.053 295.832 168.144 295.267 168.144ZM295.059 161.04C294.323 161.04 293.742 161.269 293.315 161.728C292.888 162.187 292.638 162.789 292.563 163.536H297.283C297.251 162.747 297.043 162.133 296.659 161.696C296.286 161.259 295.752 161.04 295.059 161.04ZM300.279 168V160.224H301.543V161.552C301.799 161.061 302.161 160.693 302.631 160.448C303.1 160.203 303.628 160.08 304.215 160.08C306.06 160.08 306.983 161.104 306.983 163.152V168H305.687V163.232C305.687 162.507 305.543 161.979 305.255 161.648C304.977 161.307 304.529 161.136 303.911 161.136C303.196 161.136 302.625 161.36 302.199 161.808C301.783 162.245 301.575 162.832 301.575 163.568V168H300.279ZM312.876 168.144C311.65 168.144 310.679 167.787 309.964 167.072C309.25 166.347 308.892 165.365 308.892 164.128C308.892 163.328 309.052 162.624 309.372 162.016C309.692 161.397 310.13 160.923 310.684 160.592C311.25 160.251 311.9 160.08 312.636 160.08C313.692 160.08 314.519 160.421 315.116 161.104C315.714 161.776 316.012 162.704 316.012 163.888V164.384H310.156C310.199 165.269 310.455 165.947 310.924 166.416C311.394 166.875 312.044 167.104 312.876 167.104C313.346 167.104 313.794 167.035 314.22 166.896C314.647 166.747 315.052 166.507 315.436 166.176L315.884 167.088C315.532 167.419 315.084 167.68 314.54 167.872C313.996 168.053 313.442 168.144 312.876 168.144ZM312.668 161.04C311.932 161.04 311.351 161.269 310.924 161.728C310.498 162.187 310.247 162.789 310.172 163.536H314.892C314.86 162.747 314.652 162.133 314.268 161.696C313.895 161.259 313.362 161.04 312.668 161.04ZM318.304 168V161.232H316.768V160.224H318.304V159.952C318.304 158.917 318.56 158.133 319.072 157.6C319.595 157.067 320.395 156.768 321.472 156.704L322.064 156.672L322.144 157.68L321.472 157.712C320.811 157.755 320.331 157.952 320.032 158.304C319.744 158.645 319.6 159.141 319.6 159.792V160.224H324.4V168H323.104V161.232H319.6V168H318.304ZM322.96 158.288V156.832H324.544V158.288H322.96ZM329.945 168.144C329.028 168.144 328.34 167.904 327.881 167.424C327.423 166.933 327.193 166.229 327.193 165.312V161.232H325.673V160.224H327.193V157.84H328.489V160.224H330.953V161.232H328.489V165.184C328.489 165.792 328.617 166.256 328.873 166.576C329.129 166.885 329.545 167.04 330.121 167.04C330.292 167.04 330.463 167.019 330.633 166.976C330.804 166.933 330.959 166.891 331.097 166.848L331.321 167.84C331.183 167.915 330.98 167.984 330.713 168.048C330.447 168.112 330.191 168.144 329.945 168.144ZM335.845 168.144C334.618 168.144 333.648 167.787 332.933 167.072C332.218 166.347 331.861 165.365 331.861 164.128C331.861 163.328 332.021 162.624 332.341 162.016C332.661 161.397 333.098 160.923 333.653 160.592C334.218 160.251 334.869 160.08 335.605 160.08C336.661 160.08 337.488 160.421 338.085 161.104C338.682 161.776 338.981 162.704 338.981 163.888V164.384H333.125C333.168 165.269 333.424 165.947 333.893 166.416C334.362 166.875 335.013 167.104 335.845 167.104C336.314 167.104 336.762 167.035 337.189 166.896C337.616 166.747 338.021 166.507 338.405 166.176L338.853 167.088C338.501 167.419 338.053 167.68 337.509 167.872C336.965 168.053 336.41 168.144 335.845 168.144ZM335.637 161.04C334.901 161.04 334.32 161.269 333.893 161.728C333.466 162.187 333.216 162.789 333.141 163.536H337.861C337.829 162.747 337.621 162.133 337.237 161.696C336.864 161.259 336.33 161.04 335.637 161.04ZM343.817 168.144C343.123 168.144 342.515 167.979 341.993 167.648C341.481 167.317 341.081 166.853 340.793 166.256C340.515 165.648 340.377 164.933 340.377 164.112C340.377 163.28 340.515 162.565 340.793 161.968C341.081 161.36 341.481 160.896 341.993 160.576C342.515 160.245 343.123 160.08 343.817 160.08C344.425 160.08 344.958 160.213 345.417 160.48C345.886 160.747 346.233 161.115 346.457 161.584V156.72H347.753V168H346.489V166.576C346.265 167.067 345.918 167.451 345.449 167.728C344.979 168.005 344.435 168.144 343.817 168.144ZM344.089 167.104C344.814 167.104 345.395 166.848 345.833 166.336C346.27 165.813 346.489 165.072 346.489 164.112C346.489 163.141 346.27 162.4 345.833 161.888C345.395 161.376 344.814 161.12 344.089 161.12C343.353 161.12 342.766 161.376 342.329 161.888C341.902 162.4 341.689 163.141 341.689 164.112C341.689 165.072 341.902 165.813 342.329 166.336C342.766 166.848 343.353 167.104 344.089 167.104Z" fill="#DEFF85"/>
<path d="M235.336 229.608C233.501 229.608 231.923 229.245 230.6 228.52C229.299 227.795 228.296 226.835 227.592 225.64C226.909 224.424 226.568 223.101 226.568 221.672H230.952C230.952 222.483 231.133 223.197 231.496 223.816C231.88 224.435 232.403 224.925 233.064 225.288C233.725 225.629 234.493 225.8 235.368 225.8C236.285 225.8 237.075 225.608 237.736 225.224C238.397 224.84 238.899 224.317 239.24 223.656C239.603 222.995 239.784 222.237 239.784 221.384C239.784 220.552 239.603 219.805 239.24 219.144C238.899 218.461 238.397 217.928 237.736 217.544C237.096 217.139 236.317 216.936 235.4 216.936C234.632 216.936 233.907 217.085 233.224 217.384C232.541 217.683 232.008 218.077 231.624 218.568H227.432L228.616 205.64H242.152V209.512H230.6L232.2 208.264L231.432 216.328L230.344 216.008C230.963 215.304 231.72 214.717 232.616 214.248C233.512 213.779 234.643 213.544 236.008 213.544C237.736 213.544 239.208 213.896 240.424 214.6C241.64 215.304 242.568 216.243 243.208 217.416C243.848 218.568 244.168 219.827 244.168 221.192V221.608C244.168 222.995 243.827 224.296 243.144 225.512C242.461 226.728 241.459 227.72 240.136 228.488C238.835 229.235 237.235 229.608 235.336 229.608ZM257.503 229.608C255.668 229.608 254.111 229.309 252.831 228.712C251.551 228.093 250.506 227.261 249.695 226.216C248.884 225.149 248.287 223.933 247.903 222.568C247.54 221.181 247.359 219.731 247.359 218.216V216.424C247.359 214.269 247.722 212.328 248.447 210.6C249.172 208.872 250.282 207.507 251.775 206.504C253.268 205.48 255.178 204.968 257.503 204.968C259.807 204.968 261.706 205.48 263.199 206.504C264.692 207.507 265.791 208.872 266.495 210.6C267.22 212.328 267.583 214.269 267.583 216.424V218.216C267.583 219.731 267.391 221.181 267.007 222.568C266.644 223.933 266.058 225.149 265.247 226.216C264.458 227.261 263.423 228.093 262.143 228.712C260.863 229.309 259.316 229.608 257.503 229.608ZM257.503 225.448C259.402 225.448 260.799 224.797 261.695 223.496C262.591 222.173 263.039 220.125 263.039 217.352C263.039 214.408 262.58 212.307 261.663 211.048C260.746 209.768 259.359 209.128 257.503 209.128C255.626 209.128 254.218 209.768 253.279 211.048C252.362 212.307 251.903 214.387 251.903 217.288C251.903 220.083 252.362 222.141 253.279 223.464C254.196 224.787 255.604 225.448 257.503 225.448ZM281.691 229.608C279.856 229.608 278.299 229.309 277.019 228.712C275.739 228.093 274.693 227.261 273.883 226.216C273.072 225.149 272.475 223.933 272.091 222.568C271.728 221.181 271.547 219.731 271.547 218.216V216.424C271.547 214.269 271.909 212.328 272.635 210.6C273.36 208.872 274.469 207.507 275.963 206.504C277.456 205.48 279.365 204.968 281.691 204.968C283.995 204.968 285.893 205.48 287.387 206.504C288.88 207.507 289.979 208.872 290.683 210.6C291.408 212.328 291.771 214.269 291.771 216.424V218.216C291.771 219.731 291.579 221.181 291.195 222.568C290.832 223.933 290.245 225.149 289.435 226.216C288.645 227.261 287.611 228.093 286.331 228.712C285.051 229.309 283.504 229.608 281.691 229.608ZM281.691 225.448C283.589 225.448 284.987 224.797 285.883 223.496C286.779 222.173 287.227 220.125 287.227 217.352C287.227 214.408 286.768 212.307 285.851 211.048C284.933 209.768 283.547 209.128 281.691 209.128C279.813 209.128 278.405 209.768 277.467 211.048C276.549 212.307 276.091 214.387 276.091 217.288C276.091 220.083 276.549 222.141 277.467 223.464C278.384 224.787 279.792 225.448 281.691 225.448ZM305.878 229.608C304.043 229.608 302.486 229.309 301.206 228.712C299.926 228.093 298.881 227.261 298.07 226.216C297.259 225.149 296.662 223.933 296.278 222.568C295.915 221.181 295.734 219.731 295.734 218.216V216.424C295.734 214.269 296.097 212.328 296.822 210.6C297.547 208.872 298.657 207.507 300.15 206.504C301.643 205.48 303.553 204.968 305.878 204.968C308.182 204.968 310.081 205.48 311.574 206.504C313.067 207.507 314.166 208.872 314.87 210.6C315.595 212.328 315.958 214.269 315.958 216.424V218.216C315.958 219.731 315.766 221.181 315.382 222.568C315.019 223.933 314.433 225.149 313.622 226.216C312.833 227.261 311.798 228.093 310.518 228.712C309.238 229.309 307.691 229.608 305.878 229.608ZM305.878 225.448C307.777 225.448 309.174 224.797 310.07 223.496C310.966 222.173 311.414 220.125 311.414 217.352C311.414 214.408 310.955 212.307 310.038 211.048C309.121 209.768 307.734 209.128 305.878 209.128C304.001 209.128 302.593 209.768 301.654 211.048C300.737 212.307 300.278 214.387 300.278 217.288C300.278 220.083 300.737 222.141 301.654 223.464C302.571 224.787 303.979 225.448 305.878 225.448ZM325.49 225.896V210.088H329.394V225.896H325.49ZM319.698 219.784V216.2H335.186V219.784H319.698Z" fill="#DEFF85"/>
<rect x="46.5" y="160.5" width="155" height="138" rx="23.5" fill="#8CC63F"/>
<rect x="46.5" y="160.5" width="155" height="138" rx="23.5" stroke="#0F6337"/>
<path d="M76.348 200L71.324 188.72H73.516L77.244 197.376L80.972 188.72H83.084L78.06 200H76.348ZM86.4986 200.16C85.688 200.16 84.984 199.995 84.3866 199.664C83.7893 199.333 83.3253 198.864 82.9946 198.256C82.664 197.637 82.4986 196.912 82.4986 196.08C82.4986 195.248 82.664 194.528 82.9946 193.92C83.3253 193.312 83.7893 192.843 84.3866 192.512C84.984 192.181 85.688 192.016 86.4986 192.016C87.3093 192.016 88.0133 192.181 88.6106 192.512C89.208 192.843 89.672 193.312 90.0026 193.92C90.3333 194.528 90.4986 195.248 90.4986 196.08C90.4986 196.912 90.3333 197.637 90.0026 198.256C89.672 198.864 89.208 199.333 88.6106 199.664C88.0133 199.995 87.3093 200.16 86.4986 200.16ZM86.4986 198.64C87.096 198.64 87.576 198.427 87.9386 198C88.3013 197.563 88.4826 196.923 88.4826 196.08C88.4826 195.227 88.3013 194.592 87.9386 194.176C87.576 193.749 87.096 193.536 86.4986 193.536C85.9013 193.536 85.4213 193.749 85.0586 194.176C84.696 194.592 84.5146 195.227 84.5146 196.08C84.5146 196.923 84.696 197.563 85.0586 198C85.4213 198.427 85.9013 198.64 86.4986 198.64ZM94.8694 200.16C93.9414 200.16 93.2534 199.909 92.8054 199.408C92.368 198.896 92.1494 198.149 92.1494 197.168V188.72H94.1494V197.072C94.1494 198.032 94.5547 198.512 95.3654 198.512C95.4827 198.512 95.6 198.507 95.7174 198.496C95.8347 198.485 95.9467 198.464 96.0534 198.432L96.0214 200.016C95.6374 200.112 95.2534 200.16 94.8694 200.16ZM100.091 200.16C98.1708 200.16 97.2108 199.083 97.2108 196.928V192.176H99.2108V196.96C99.2108 197.515 99.3228 197.925 99.5468 198.192C99.7708 198.459 100.128 198.592 100.619 198.592C101.152 198.592 101.589 198.411 101.931 198.048C102.272 197.675 102.443 197.184 102.443 196.576V192.176H104.443V200H102.491V198.832C101.968 199.717 101.168 200.16 100.091 200.16ZM106.524 200V192.176H108.476V193.392C108.743 192.944 109.1 192.603 109.548 192.368C110.007 192.133 110.519 192.016 111.084 192.016C112.93 192.016 113.852 193.088 113.852 195.232V200H111.852V195.328C111.852 194.72 111.735 194.277 111.5 194C111.276 193.723 110.924 193.584 110.444 193.584C109.858 193.584 109.388 193.771 109.036 194.144C108.695 194.507 108.524 194.992 108.524 195.6V200H106.524ZM119.468 200.16C117.398 200.16 116.364 199.136 116.364 197.088V193.68H114.86V192.176H116.364V189.84H118.364V192.176H120.732V193.68H118.364V196.976C118.364 197.488 118.476 197.872 118.7 198.128C118.924 198.384 119.286 198.512 119.788 198.512C119.937 198.512 120.092 198.496 120.252 198.464C120.412 198.421 120.577 198.379 120.748 198.336L121.052 199.808C120.86 199.915 120.614 200 120.316 200.064C120.028 200.128 119.745 200.16 119.468 200.16ZM125.802 200.16C124.917 200.16 124.154 199.995 123.514 199.664C122.874 199.333 122.378 198.864 122.026 198.256C121.685 197.648 121.514 196.928 121.514 196.096C121.514 195.285 121.68 194.576 122.01 193.968C122.352 193.36 122.816 192.885 123.402 192.544C124 192.192 124.677 192.016 125.434 192.016C126.544 192.016 127.418 192.368 128.058 193.072C128.709 193.776 129.034 194.736 129.034 195.952V196.544H123.434C123.584 197.941 124.384 198.64 125.834 198.64C126.272 198.64 126.709 198.576 127.146 198.448C127.584 198.309 127.984 198.096 128.346 197.808L128.906 199.152C128.533 199.461 128.064 199.707 127.498 199.888C126.933 200.069 126.368 200.16 125.802 200.16ZM125.514 193.376C124.928 193.376 124.453 193.557 124.09 193.92C123.728 194.283 123.509 194.773 123.434 195.392H127.37C127.328 194.741 127.146 194.245 126.826 193.904C126.517 193.552 126.08 193.376 125.514 193.376ZM134.474 200.16C133.589 200.16 132.826 199.995 132.186 199.664C131.546 199.333 131.05 198.864 130.698 198.256C130.357 197.648 130.186 196.928 130.186 196.096C130.186 195.285 130.351 194.576 130.682 193.968C131.023 193.36 131.487 192.885 132.074 192.544C132.671 192.192 133.349 192.016 134.106 192.016C135.215 192.016 136.09 192.368 136.73 193.072C137.381 193.776 137.706 194.736 137.706 195.952V196.544H132.106C132.255 197.941 133.055 198.64 134.506 198.64C134.943 198.64 135.381 198.576 135.818 198.448C136.255 198.309 136.655 198.096 137.018 197.808L137.578 199.152C137.205 199.461 136.735 199.707 136.17 199.888C135.605 200.069 135.039 200.16 134.474 200.16ZM134.186 193.376C133.599 193.376 133.125 193.557 132.762 193.92C132.399 194.283 132.181 194.773 132.106 195.392H136.042C135.999 194.741 135.818 194.245 135.498 193.904C135.189 193.552 134.751 193.376 134.186 193.376ZM139.29 200V192.176H141.242V193.552C141.626 192.624 142.447 192.112 143.706 192.016L144.314 191.968L144.442 193.664L143.29 193.776C141.978 193.904 141.322 194.576 141.322 195.792V200H139.29ZM148.342 200.16C147.68 200.16 147.062 200.08 146.486 199.92C145.91 199.76 145.43 199.531 145.046 199.232L145.558 197.92C145.952 198.187 146.395 198.395 146.886 198.544C147.376 198.683 147.867 198.752 148.358 198.752C148.87 198.752 149.248 198.667 149.494 198.496C149.75 198.315 149.878 198.08 149.878 197.792C149.878 197.344 149.547 197.056 148.886 196.928L147.286 196.624C145.931 196.368 145.254 195.664 145.254 194.512C145.254 194 145.392 193.557 145.67 193.184C145.958 192.811 146.352 192.523 146.854 192.32C147.355 192.117 147.931 192.016 148.582 192.016C149.136 192.016 149.67 192.096 150.182 192.256C150.694 192.405 151.131 192.635 151.494 192.944L150.95 194.256C150.64 194 150.267 193.797 149.83 193.648C149.403 193.499 148.992 193.424 148.598 193.424C148.075 193.424 147.686 193.515 147.43 193.696C147.184 193.877 147.062 194.117 147.062 194.416C147.062 194.885 147.366 195.173 147.974 195.28L149.574 195.584C150.267 195.712 150.79 195.947 151.142 196.288C151.504 196.629 151.686 197.088 151.686 197.664C151.686 198.443 151.382 199.056 150.774 199.504C150.166 199.941 149.355 200.16 148.342 200.16Z" fill="#0B301A"/>
<path d="M81.2152 265.684C79.1992 265.684 77.4592 265.3 75.9952 264.532C74.5552 263.764 73.4512 262.744 72.6832 261.472C71.9152 260.176 71.5312 258.736 71.5312 257.152H76.4632C76.4632 258.424 76.8832 259.456 77.7232 260.248C78.5872 261.016 79.7512 261.4 81.2152 261.4C82.1992 261.4 83.0392 261.22 83.7352 260.86C84.4552 260.476 85.0072 259.96 85.3912 259.312C85.7752 258.64 85.9672 257.872 85.9672 257.008C85.9672 255.712 85.5472 254.656 84.7072 253.84C83.8672 253 82.7152 252.58 81.2512 252.58C80.5312 252.58 79.8952 252.676 79.3432 252.868C78.8152 253.06 78.3472 253.312 77.9392 253.624L75.5992 249.592L84.2392 243.688L83.9152 243.076H72.6112V238.72H89.7832V243.976L80.8912 249.88L78.1192 249.376C78.5752 249.232 79.0672 249.124 79.5952 249.052C80.1232 248.956 80.6992 248.908 81.3232 248.908C83.3152 248.908 85.0192 249.256 86.4352 249.952C87.8752 250.624 88.9792 251.56 89.7472 252.76C90.5152 253.96 90.8992 255.34 90.8992 256.9V257.368C90.8992 258.88 90.5152 260.272 89.7472 261.544C88.9792 262.792 87.8752 263.8 86.4352 264.568C84.9952 265.312 83.2552 265.684 81.2152 265.684ZM99.3944 265V241.888L100.978 243.112H94.0304V238.72H104.47V265H99.3944ZM119.619 237.964C121.563 237.964 123.207 238.3 124.551 238.972C125.919 239.62 127.023 240.52 127.863 241.672C128.703 242.824 129.315 244.168 129.699 245.704C130.083 247.216 130.275 248.824 130.275 250.528V252.112C130.275 256.408 129.183 259.672 126.999 261.904C124.839 264.112 121.659 265.216 117.459 265.216C116.547 265.216 115.695 265.192 114.903 265.144C114.111 265.096 113.319 265.024 112.527 264.928V260.644C113.319 260.74 114.123 260.812 114.939 260.86C115.779 260.908 116.679 260.932 117.639 260.932C119.655 260.932 121.239 260.584 122.391 259.888C123.543 259.192 124.359 258.172 124.839 256.828C125.343 255.484 125.595 253.816 125.595 251.824V249.484L126.747 247.828C126.723 249.676 126.351 251.212 125.631 252.436C124.935 253.636 123.963 254.548 122.715 255.172C121.467 255.772 120.039 256.072 118.431 256.072C116.559 256.072 114.963 255.7 113.643 254.956C112.323 254.212 111.303 253.18 110.583 251.86C109.887 250.54 109.539 249.004 109.539 247.252C109.539 245.428 109.947 243.82 110.763 242.428C111.579 241.012 112.731 239.92 114.219 239.152C115.731 238.36 117.531 237.964 119.619 237.964ZM119.727 242.248C118.599 242.248 117.639 242.464 116.847 242.896C116.055 243.304 115.455 243.88 115.047 244.624C114.639 245.368 114.435 246.22 114.435 247.18C114.435 248.164 114.627 249.028 115.011 249.772C115.419 250.516 116.007 251.092 116.775 251.5C117.543 251.908 118.467 252.112 119.547 252.112C120.579 252.112 121.515 251.932 122.355 251.572C123.219 251.188 123.891 250.636 124.371 249.916C124.875 249.172 125.127 248.26 125.127 247.18C125.127 246.244 124.923 245.404 124.515 244.66C124.131 243.916 123.531 243.328 122.715 242.896C121.923 242.464 120.927 242.248 119.727 242.248ZM140.922 261.508V243.724H145.314V261.508H140.922ZM134.406 254.632V250.6H151.83V254.632H134.406Z" fill="#0B301A"/>
</svg>
