<svg width="18" height="19" viewBox="0 0 18 19" fill="none" xmlns="http://www.w3.org/2000/svg">
<path d="M8.13397 2.35836C8.5566 2.11945 8.76795 2 9 2C9.23205 2 9.4434 2.11945 9.86603 2.35836L14.884 5.19487C15.3066 5.43378 15.518 5.55324 15.634 5.75C15.75 5.94676 15.75 6.18567 15.75 6.66349V12.3365C15.75 12.8143 15.75 13.0533 15.634 13.25C15.518 13.4467 15.3066 13.5662 14.884 13.8052L9.86603 16.6416C9.4434 16.8805 9.23205 17 9 17C8.76795 17 8.5566 16.8805 8.13397 16.6416L3.11602 13.8052C2.69338 13.5662 2.48205 13.4467 2.36603 13.25C2.25 13.0533 2.25 12.8143 2.25 12.3365V6.66349C2.25 6.18567 2.25 5.94676 2.36603 5.75C2.48205 5.55324 2.69338 5.43378 3.11602 5.19487L8.13397 2.35836Z" stroke="#0C1F12" stroke-width="1.5" stroke-linecap="round" stroke-linejoin="round"/>
<path d="M11.625 3.70288L9.8505 4.66296C9.43522 4.88764 9.22762 4.99998 9 4.99998C8.77238 4.99998 8.56478 4.88764 8.1495 4.66296L6.375 3.70288" stroke="#0C1F12" stroke-width="1.5" stroke-linecap="round" stroke-linejoin="round"/>
<path d="M9 9.21155V17V9.21155ZM9 9.21155L15.375 5.75L9 9.21155ZM9 9.21155L2.625 5.75L9 9.21155Z" fill="#0C1F12"/>
<path d="M9 9.21155V17M9 9.21155L15.375 5.75M9 9.21155L2.625 5.75" stroke="#0C1F12" stroke-width="1.5" stroke-linecap="round" stroke-linejoin="round"/>
<path d="M2.25 9.5L4.42082 10.6689C4.82425 10.8862 5.02597 10.9947 5.13799 11.1899C5.25 11.3851 5.25 11.628 5.25 12.1137V14.75" fill="#0C1F12"/>
<path d="M2.25 9.5L4.42082 10.6689C4.82426 10.8862 5.02597 10.9947 5.13799 11.1899C5.25 11.3851 5.25 11.628 5.25 12.1137V14.75" stroke="#0C1F12" stroke-width="1.5" stroke-linecap="round" stroke-linejoin="round"/>
<path d="M2.22656 9.51343L2.15343 11.9779C2.13988 12.4359 2.13307 12.6649 2.24606 12.8594C2.35913 13.0541 2.56944 13.1755 2.99014 13.4184L5.2732 14.7365" fill="#0C1F12"/>
<path d="M2.22656 9.51343L2.15343 11.9779C2.13988 12.4359 2.13307 12.6649 2.24606 12.8594C2.35913 13.0541 2.56944 13.1755 2.99014 13.4184L5.2732 14.7365" stroke="#0C1F12" stroke-width="1.5" stroke-linecap="round" stroke-linejoin="round"/>
<path d="M15.75 9.5L13.5792 10.6689C13.1758 10.8862 12.974 10.9947 12.862 11.1899C12.75 11.3851 12.75 11.628 12.75 12.1137V14.75" fill="#0C1F12"/>
<path d="M15.75 9.5L13.5792 10.6689C13.1758 10.8862 12.974 10.9947 12.862 11.1899C12.75 11.3851 12.75 11.628 12.75 12.1137V14.75" stroke="#0C1F12" stroke-width="1.5" stroke-linecap="round" stroke-linejoin="round"/>
<path d="M15.7734 9.5135L15.8466 11.9779C15.8601 12.4359 15.8669 12.6649 15.754 12.8595C15.6409 13.0541 15.4306 13.1756 15.0099 13.4184L12.7268 14.7366" fill="#0C1F12"/>
<path d="M15.7734 9.5135L15.8466 11.9779C15.8601 12.4359 15.8669 12.6649 15.754 12.8595C15.6409 13.0541 15.4306 13.1756 15.0099 13.4184L12.7268 14.7366" stroke="#0C1F12" stroke-width="1.5" stroke-linecap="round" stroke-linejoin="round"/>
</svg>
