<svg width="115" height="47" viewBox="0 0 115 47" fill="none" xmlns="http://www.w3.org/2000/svg">
<path d="M4.12998 9.82632C4.08105 9.87852 3.44665 10.5756 3.6373 11.4953C3.75316 12.0532 4.10692 12.3795 4.23122 12.4845C4.01525 12.7389 3.74191 13.0808 3.44889 13.5044C3.3156 13.6969 2.81112 14.4378 2.37693 15.3587C1.39833 17.4344 1.23748 19.4489 1.17449 20.3349C1.13455 20.8941 1.08281 21.6655 1.18292 22.6794C1.21667 23.0243 1.38033 24.5283 2.1379 26.37C3.21099 28.9778 4.77563 30.561 5.52365 31.3019C6.33634 32.1076 7.0911 32.6817 7.63664 33.059C7.63664 33.059 7.52078 31.2767 8.14394 30.0247C8.14394 30.0247 8.39028 32.5131 9.28846 32.3121C9.28846 32.3121 8.63662 28.8507 9.49149 27.877C9.49149 27.877 10.7372 31.0607 11.5055 31.8952C12.2738 32.7297 12.6933 33.1622 13.4762 33.4406C14.2585 33.7189 15.0701 32.8071 15.0842 32.1886C15.0988 31.5706 14.2147 28.8195 16.3012 26.424C16.3012 26.424 16.1707 27.9076 16.7793 27.9538C17.3878 28 18.5616 27.1037 18.8512 26.0839C19.1409 25.064 18.9384 23.9818 18.9384 23.9818C18.9384 23.9818 21.3292 25.2488 20.6768 27.1811C20.025 29.1128 19.561 29.1746 19.561 29.1746C19.561 29.1746 19.764 31.7398 21.4445 31.3535C21.4445 31.3535 23.2122 29.5453 23.8061 27.8146C24.4 26.0839 24.0524 25.6045 24.0524 25.6045C24.0524 25.6045 25.8201 29.3138 24.9506 32.0182C24.9506 32.0182 24.6171 33.3626 24.3713 33.5635C24.3713 33.5635 28.1238 31.5544 29.6597 28.5561C30.3639 27.4625 31.55 25.2866 31.8329 22.2816C32.0995 19.4537 31.4308 17.3204 31.2677 16.8261C30.5765 14.7282 29.4972 13.3016 28.8189 12.5295C28.9443 12.4881 29.1406 12.4017 29.3116 12.2146C29.721 11.767 29.6445 11.1191 29.6215 10.9224C29.6052 10.7862 29.5658 10.4796 29.3605 10.1689C29.2537 10.0069 29.1367 9.89651 29.0506 9.82692C27.8049 9.83652 26.5586 9.84612 25.3128 9.85572C18.2517 9.84672 11.1905 9.83652 4.12998 9.82632Z" fill="#93C83E"/>
<path d="M28.9204 1.3958L25.3125 9.85693H26.3991L30.0284 4.01501C30.0284 4.01501 31.093 2.13729 30.8978 1.27942C30.7027 0.422149 29.7899 0.0280089 28.9204 1.3958Z" fill="#93C83E"/>
<path d="M0 28.6341L4.86827 38.1229C5.62641 38.7912 6.43235 39.4685 7.28778 40.1476C8.50541 41.114 9.69436 41.9809 10.8372 42.7596C11.07 43.0283 11.3242 43.3943 11.5582 43.8532C11.9024 44.5293 12.214 45.4646 12.0835 46.5H16.1695C16.1695 46.5 16.517 43.5328 15.4158 41.4926C14.3146 39.4529 13.0689 37.9999 9.47558 36.4851C9.47558 36.4851 6.99814 35.0321 5.75182 33.5642C5.65621 33.4724 5.10561 32.9588 4.52407 33.1262C4.45602 33.146 4.38122 33.1766 4.30304 33.224C4.21081 33.3314 4.09101 33.506 4.07133 33.7339C4.04152 34.0771 4.25524 34.3476 4.60731 34.7694C5.1596 35.4311 5.43575 35.7622 5.59266 35.9128C6.46778 36.7557 6.74955 36.7863 7.43289 37.4582C7.68766 37.7083 8.06392 38.1127 8.46154 38.6946C8.54872 38.9441 8.64152 39.2621 8.55715 39.3185C8.49641 39.3593 8.34512 39.2717 8.0268 38.9105C7.09937 37.8595 5.63597 36.5925 5.63597 36.5925C4.39359 35.2721 3.67876 34.0855 3.76706 33.6253C3.82049 33.3458 3.94085 33.1772 3.94085 33.1772C4.12644 32.9175 4.46221 32.7447 4.46221 32.7447L1.39085 28.2478C1.39085 28.2478 0.0292456 27.3821 0 28.6341Z" fill="#93C83E"/>
<path d="M32.9988 28.6341L28.1306 38.1229L22.1611 42.759C22.1611 42.759 20.6544 44.4279 20.9153 46.4988H16.8294C16.8294 46.4988 16.4818 43.5316 17.583 41.4913C18.6842 39.4517 19.93 37.9987 23.5233 36.4839C23.5233 36.4839 26.0007 35.0309 27.247 33.5629C27.247 33.5629 28.2903 32.6355 28.6232 33.3002C28.6232 33.3002 29.3476 33.7327 28.3915 34.7682C27.4354 35.8036 24.5379 38.6934 24.5379 38.6934C24.5379 38.6934 24.0452 39.9604 24.9726 38.9099C25.9 37.8595 27.3634 36.5919 27.3634 36.5919C27.3634 36.5919 29.5799 34.4646 29.4641 33.7741C29.3482 33.0836 28.5366 32.7435 28.5366 32.7435L31.608 28.2465C31.6074 28.2477 32.9696 27.3821 32.9988 28.6341Z" fill="#93C83E"/>
<path d="M50.5502 8.15104C50.5502 12.1212 47.27 15.3383 43.2575 15.3383C39.2243 15.3383 35.9648 12.1204 35.9648 8.15104C35.9648 4.2017 39.2243 0.983772 43.2575 0.983772C47.27 0.984514 50.5502 4.20244 50.5502 8.15104ZM48.0637 8.00491C48.0637 4.43166 45.9117 1.52751 43.2575 1.52751C40.6034 1.52751 38.4514 4.43166 38.4514 8.00491C38.4514 11.5774 40.6034 14.4823 43.2575 14.4823C45.9117 14.4823 48.0637 11.5774 48.0637 8.00491Z" fill="white"/>
<path d="M60.9923 15.0668L59.2787 15.0876C58.6104 15.0876 58.0881 14.7946 57.8789 14.2101C57.2313 14.9207 56.333 15.0876 55.7477 15.0876C52.739 15.0876 51.5269 14.0639 51.5269 11.2851V6.58362C51.5269 4.93311 50.7539 4.84929 50.7539 4.84929H54.7656C54.7656 4.84929 53.9926 4.93311 53.9926 6.60439C53.9926 6.60439 53.9926 6.60439 53.9926 11.912C53.9926 12.5596 53.7627 14.4816 55.727 14.4816C57.1483 14.4816 57.7536 13.834 57.7536 11.2844V6.58288C57.7536 4.93237 56.9598 4.84855 56.9598 4.84855H60.993C60.993 4.84855 60.2201 4.93237 60.2201 6.60365V13.311C60.2193 14.963 60.9923 15.0668 60.9923 15.0668Z" fill="white"/>
<path d="M68.1799 8.00491C68.1799 8.00491 68.4098 5.45534 66.4248 5.45534C65.0035 5.45534 64.6281 6.41671 64.6281 6.89666V13.3325C64.6281 14.9838 65.4218 15.0876 65.4218 15.0876H61.4102C61.4102 15.0876 62.1623 14.983 62.1623 13.3117V7.56502C62.1623 5.91451 61.4102 5.78915 61.4102 5.78915L64.6281 4.84855V5.6215C64.9834 5.16159 65.7979 4.84855 66.6339 4.84855C69.7888 4.84855 70.4364 6.70824 70.4364 6.70824L68.1799 8.00491Z" fill="white"/>
<path d="M42.9645 31.0163C38.9321 31.0163 35.9648 27.7984 35.9648 23.849C35.9648 20.2765 38.2637 16.7863 43.2575 16.7863C45.911 16.7863 48.0637 17.81 49.0036 19.6912L46.8516 20.7357C46.7678 19.2521 45.7648 17.3086 43.2783 17.3086C40.1649 17.3086 38.4521 19.7328 38.4521 23.6814C38.4521 27.2539 40.3118 30.1588 42.9653 30.1588C44.3651 30.1588 45.9117 29.365 46.7893 28.0691L48.419 28.9051C47.1016 30.2018 44.9919 31.0163 42.9645 31.0163Z" fill="white"/>
<path d="M59.6332 25.6679C59.6332 28.6143 57.7112 30.9963 53.971 30.9963C50.2516 30.9963 48.3711 28.6143 48.3711 25.6679C48.3711 22.7215 50.3562 20.3188 53.971 20.3188C57.6066 20.3188 59.6332 22.7215 59.6332 25.6679ZM57.1474 25.5425C57.1474 22.8891 56.2906 20.7157 53.971 20.7157C51.6514 20.7157 50.8576 22.8891 50.8576 25.5425C50.8576 28.2167 51.3376 30.4317 53.971 30.4317C56.6244 30.4317 57.1474 28.2167 57.1474 25.5425Z" fill="white"/>
<path d="M72.6303 23.6829C72.6303 23.0353 72.881 21.1333 70.896 21.1333C69.9346 21.1333 69.3708 21.4678 69.0778 22.4492C69.2447 22.9507 69.3078 23.5775 69.3078 24.3089V29.0097C69.3078 30.661 70.0807 30.7648 70.0807 30.7648H66.069C66.069 30.7648 66.842 30.6602 66.842 28.9889C66.842 28.9889 66.842 28.9889 66.842 23.6814C66.842 23.0338 67.0927 21.1318 65.1077 21.1318C63.7494 21.1318 63.3318 21.7794 63.2687 23.9944V29.009C63.2687 30.6602 64.0625 30.7641 64.0625 30.7641H60.0508C60.0508 30.7641 60.803 30.6595 60.803 28.9882V23.2415C60.803 21.591 60.0508 21.4656 60.0508 21.4656L63.2687 20.525V21.1934C63.854 20.6504 64.5639 20.525 65.0869 20.525C66.9258 20.525 68.0118 20.818 68.6179 21.5702C69.2655 20.7134 70.2476 20.525 70.8952 20.525C74.2178 20.525 75.0953 21.5279 75.0953 24.3074V29.0082C75.0953 30.6595 75.8891 30.7633 75.8891 30.7633H71.8559C71.8559 30.7633 72.6288 30.6587 72.6288 28.9875C72.6303 28.9904 72.6303 28.9904 72.6303 23.6829Z" fill="white"/>
<path d="M88.8842 23.6829C88.8842 23.0353 89.1349 21.1333 87.1499 21.1333C86.1885 21.1333 85.624 21.4678 85.3317 22.4492C85.4986 22.9507 85.5617 23.5775 85.5617 24.3089V29.0097C85.5617 30.661 86.3346 30.7648 86.3346 30.7648H82.3229C82.3229 30.7648 83.0959 30.6602 83.0959 28.9889C83.0959 28.9889 83.0959 28.9889 83.0959 23.6814C83.0959 23.0338 83.3466 21.1318 81.3616 21.1318C80.0033 21.1318 79.5857 21.7794 79.5226 23.9944V29.009C79.5226 30.6602 80.3164 30.7641 80.3164 30.7641H76.3047C76.3047 30.7641 77.0569 30.6595 77.0569 28.9882V23.2415C77.0569 21.591 76.3047 21.4656 76.3047 21.4656L79.5226 20.525V21.1934C80.1079 20.6504 80.8178 20.525 81.3408 20.525C83.1797 20.525 84.2657 20.818 84.8718 21.5702C85.5194 20.7134 86.5015 20.525 87.1491 20.525C90.4717 20.525 91.3492 21.5279 91.3492 24.3074V29.0082C91.3492 30.6595 92.143 30.7633 92.143 30.7633H88.1098C88.1098 30.7633 88.8827 30.6587 88.8827 28.9875C88.8842 28.9904 88.8842 28.9904 88.8842 23.6829Z" fill="white"/>
<path d="M103.817 25.6679C103.817 28.6143 101.895 30.9963 98.1546 30.9963C94.4352 30.9963 92.5547 28.6143 92.5547 25.6679C92.5547 22.7215 94.5398 20.3188 98.1546 20.3188C101.79 20.3188 103.817 22.7215 103.817 25.6679ZM101.33 25.5425C101.33 22.8891 100.473 20.7157 98.1538 20.7157C95.8342 20.7157 95.0405 22.8891 95.0405 25.5425C95.0405 28.2167 95.5204 30.4317 98.1538 30.4317C100.808 30.4317 101.33 28.2167 101.33 25.5425Z" fill="white"/>
<path d="M111.213 23.6829C111.213 23.0353 111.276 21.1333 109.479 21.1333C108.058 21.1333 107.452 21.8439 107.452 24.3097V29.0105C107.452 30.6617 108.246 30.7656 108.246 30.7656H104.234C104.234 30.7656 104.987 30.661 104.987 28.9897V23.243C104.987 21.5925 104.234 21.4671 104.234 21.4671L107.452 20.5265V21.2371C108.141 20.6941 108.977 20.5265 109.479 20.5265C112.801 20.5265 113.679 21.5294 113.679 24.3089V29.0097C113.679 30.661 114.473 30.7648 114.473 30.7648H110.44C110.44 30.7648 111.213 30.6602 111.213 28.9889C111.213 28.9904 111.213 28.9904 111.213 23.6829Z" fill="white"/>
<path d="M47.8753 36.2579C47.8753 39.3712 45.2841 40.7502 42.0039 40.7502C41.5232 40.7502 39.8096 40.7086 39.1828 40.6248V44.0304C39.1828 45.6817 39.9765 45.7855 39.9765 45.7855H35.9648C35.9648 45.7855 36.7378 45.6809 36.7378 44.0097V33.6245C36.7378 31.974 35.9648 31.8479 35.9648 31.8479C35.9648 31.8479 40.3319 31.8479 40.5826 31.8479C44.615 31.8493 47.8753 33.1237 47.8753 36.2579ZM45.3887 36.404C45.3887 33.7506 43.2368 32.6846 40.5826 32.6846C40.1227 32.6846 39.6635 32.7684 39.2451 32.9146C39.2028 33.1237 39.1828 33.3745 39.1828 33.6667V39.8311C39.6635 39.9357 40.1857 39.9987 40.5618 39.9987C43.2153 39.998 45.3887 39.0366 45.3887 36.404Z" fill="white"/>
<path d="M59.5551 40.6879C59.5551 43.6343 57.633 46.0162 53.8929 46.0162C50.1734 46.0162 48.293 43.6343 48.293 40.6879C48.293 37.7415 50.278 35.3388 53.8929 35.3388C57.5284 35.3388 59.5551 37.7415 59.5551 40.6879ZM57.0685 40.5625C57.0685 37.9091 56.2117 35.7356 53.8921 35.7356C51.5725 35.7356 50.7788 37.9091 50.7788 40.5625C50.7788 43.2367 51.2594 45.4517 53.8921 45.4517C56.5456 45.4517 57.0685 43.2367 57.0685 40.5625Z" fill="white"/>
<path d="M64.8355 35.9025H63.3103C63.3103 37.6576 63.3103 40.4579 63.3103 42.693C63.3103 45.4725 64.6893 44.9287 64.6893 44.9287C64.5224 45.2633 64.0625 45.7855 63.2265 45.7855C61.346 45.7855 60.8446 44.5949 60.8446 42.7137C60.8446 39.8304 60.8446 36.7378 60.8446 36.7378C60.8446 36.5078 60.8446 36.1525 60.6984 35.9025H59.7578V35.5472C61.4291 35.5472 62.5366 34.9834 63.3103 34.2313C63.3103 34.2313 63.3103 34.7327 63.3103 35.5472H64.8355V35.9025Z" fill="white"/>
<path d="M67.1459 45.7855C68.0246 45.7855 68.737 45.0731 68.737 44.1944C68.737 43.3156 68.0246 42.6032 67.1459 42.6032C66.2671 42.6032 65.5547 43.3156 65.5547 44.1944C65.5547 45.0731 66.2671 45.7855 67.1459 45.7855Z" fill="#93C83E"/>
</svg>
