<svg width="115" height="46" viewBox="0 0 115 46" fill="none" xmlns="http://www.w3.org/2000/svg">
<path d="M4.12998 9.32632C4.08105 9.37852 3.44665 10.0756 3.6373 10.9953C3.75316 11.5532 4.10692 11.8795 4.23122 11.9845C4.01525 12.2389 3.74191 12.5808 3.44889 13.0044C3.3156 13.1969 2.81112 13.9378 2.37693 14.8587C1.39833 16.9344 1.23748 18.9489 1.17449 19.8349C1.13455 20.3941 1.08281 21.1655 1.18292 22.1794C1.21667 22.5243 1.38033 24.0283 2.1379 25.87C3.21099 28.4778 4.77563 30.061 5.52365 30.8019C6.33634 31.6076 7.0911 32.1817 7.63664 32.559C7.63664 32.559 7.52078 30.7767 8.14394 29.5247C8.14394 29.5247 8.39028 32.0131 9.28846 31.8121C9.28846 31.8121 8.63662 28.3507 9.49149 27.377C9.49149 27.377 10.7372 30.5607 11.5055 31.3952C12.2738 32.2297 12.6933 32.6622 13.4762 32.9406C14.2585 33.2189 15.0701 32.3071 15.0842 31.6886C15.0988 31.0706 14.2147 28.3195 16.3012 25.924C16.3012 25.924 16.1707 27.4076 16.7793 27.4538C17.3878 27.5 18.5616 26.6037 18.8512 25.5839C19.1409 24.564 18.9384 23.4818 18.9384 23.4818C18.9384 23.4818 21.3292 24.7488 20.6768 26.6811C20.025 28.6128 19.561 28.6746 19.561 28.6746C19.561 28.6746 19.764 31.2398 21.4445 30.8535C21.4445 30.8535 23.2122 29.0454 23.8061 27.3146C24.4 25.5839 24.0524 25.1045 24.0524 25.1045C24.0524 25.1045 25.8201 28.8138 24.9506 31.5182C24.9506 31.5182 24.6171 32.8626 24.3713 33.0635C24.3713 33.0635 28.1238 31.0544 29.6597 28.0561C30.3639 26.9625 31.55 24.7866 31.8329 21.7816C32.0995 18.9537 31.4308 16.8204 31.2677 16.3261C30.5765 14.2282 29.4972 12.8016 28.8189 12.0295C28.9443 11.9881 29.1406 11.9017 29.3116 11.7146C29.721 11.267 29.6445 10.6191 29.6215 10.4224C29.6052 10.2862 29.5658 9.97963 29.3605 9.66887C29.2537 9.5069 29.1367 9.39651 29.0506 9.32692C27.8049 9.33652 26.5586 9.34612 25.3128 9.35572C18.2517 9.34672 11.1905 9.33652 4.12998 9.32632Z" fill="#0B301A"/>
<path d="M28.9204 0.895803L25.3125 9.35693H26.3991L30.0284 3.51501C30.0284 3.51501 31.093 1.63729 30.8978 0.77942C30.7027 -0.0778507 29.7899 -0.471991 28.9204 0.895803Z" fill="#0B301A"/>
<path d="M0 28.1341L4.86827 37.6229C5.62641 38.2912 6.43235 38.9685 7.28778 39.6476C8.50541 40.614 9.69436 41.4809 10.8372 42.2596C11.07 42.5283 11.3242 42.8943 11.5582 43.3532C11.9024 44.0293 12.214 44.9646 12.0835 46H16.1695C16.1695 46 16.517 43.0328 15.4158 40.9926C14.3146 38.9529 13.0689 37.4999 9.47558 35.9851C9.47558 35.9851 6.99814 34.5321 5.75182 33.0642C5.65621 32.9724 5.10561 32.4588 4.52407 32.6262C4.45602 32.646 4.38122 32.6766 4.30304 32.724C4.21081 32.8314 4.09101 33.006 4.07133 33.2339C4.04152 33.5771 4.25524 33.8476 4.60731 34.2694C5.1596 34.9311 5.43575 35.2622 5.59266 35.4128C6.46778 36.2557 6.74955 36.2863 7.43289 36.9582C7.68766 37.2083 8.06392 37.6127 8.46154 38.1946C8.54872 38.4441 8.64152 38.7621 8.55715 38.8185C8.49641 38.8593 8.34512 38.7717 8.0268 38.4105C7.09937 37.3595 5.63597 36.0925 5.63597 36.0925C4.39359 34.7721 3.67876 33.5855 3.76706 33.1253C3.82049 32.8458 3.94085 32.6772 3.94085 32.6772C4.12644 32.4175 4.46221 32.2447 4.46221 32.2447L1.39085 27.7478C1.39085 27.7478 0.0292456 26.8821 0 28.1341Z" fill="#0B301A"/>
<path d="M32.9988 28.1341L28.1306 37.6229L22.1611 42.259C22.1611 42.259 20.6544 43.9279 20.9153 45.9988H16.8294C16.8294 45.9988 16.4818 43.0316 17.583 40.9913C18.6842 38.9517 19.93 37.4987 23.5233 35.9839C23.5233 35.9839 26.0007 34.5309 27.247 33.0629C27.247 33.0629 28.2903 32.1355 28.6232 32.8002C28.6232 32.8002 29.3476 33.2327 28.3915 34.2682C27.4354 35.3036 24.5379 38.1934 24.5379 38.1934C24.5379 38.1934 24.0452 39.4604 24.9726 38.4099C25.9 37.3595 27.3634 36.0919 27.3634 36.0919C27.3634 36.0919 29.5799 33.9646 29.4641 33.2741C29.3482 32.5836 28.5366 32.2435 28.5366 32.2435L31.608 27.7465C31.6074 27.7477 32.9696 26.8821 32.9988 28.1341Z" fill="#0B301A"/>
<path d="M50.5502 7.65104C50.5502 11.6212 47.27 14.8383 43.2575 14.8383C39.2243 14.8383 35.9648 11.6204 35.9648 7.65104C35.9648 3.7017 39.2243 0.483772 43.2575 0.483772C47.27 0.484514 50.5502 3.70244 50.5502 7.65104ZM48.0637 7.50491C48.0637 3.93166 45.9117 1.02751 43.2575 1.02751C40.6034 1.02751 38.4514 3.93166 38.4514 7.50491C38.4514 11.0774 40.6034 13.9823 43.2575 13.9823C45.9117 13.9823 48.0637 11.0774 48.0637 7.50491Z" fill="#0B301A"/>
<path d="M60.9923 14.5668L59.2787 14.5876C58.6104 14.5876 58.0881 14.2946 57.8789 13.7101C57.2313 14.4207 56.333 14.5876 55.7477 14.5876C52.739 14.5876 51.5269 13.5639 51.5269 10.7851V6.08362C51.5269 4.43311 50.7539 4.34929 50.7539 4.34929H54.7656C54.7656 4.34929 53.9926 4.43311 53.9926 6.10439C53.9926 6.10439 53.9926 6.10439 53.9926 11.412C53.9926 12.0596 53.7627 13.9816 55.727 13.9816C57.1483 13.9816 57.7536 13.334 57.7536 10.7844V6.08288C57.7536 4.43237 56.9598 4.34855 56.9598 4.34855H60.993C60.993 4.34855 60.2201 4.43237 60.2201 6.10365V12.811C60.2193 14.463 60.9923 14.5668 60.9923 14.5668Z" fill="#0B301A"/>
<path d="M68.1799 7.50491C68.1799 7.50491 68.4098 4.95534 66.4248 4.95534C65.0035 4.95534 64.6281 5.91671 64.6281 6.39666V12.8325C64.6281 14.4838 65.4218 14.5876 65.4218 14.5876H61.4102C61.4102 14.5876 62.1623 14.483 62.1623 12.8117V7.06502C62.1623 5.41451 61.4102 5.28915 61.4102 5.28915L64.6281 4.34855V5.1215C64.9834 4.66159 65.7979 4.34855 66.6339 4.34855C69.7888 4.34855 70.4364 6.20824 70.4364 6.20824L68.1799 7.50491Z" fill="#0B301A"/>
<path d="M42.9645 30.5163C38.9321 30.5163 35.9648 27.2984 35.9648 23.349C35.9648 19.7765 38.2637 16.2863 43.2575 16.2863C45.911 16.2863 48.0637 17.31 49.0036 19.1912L46.8516 20.2357C46.7678 18.7521 45.7648 16.8086 43.2783 16.8086C40.1649 16.8086 38.4521 19.2328 38.4521 23.1814C38.4521 26.7539 40.3118 29.6588 42.9653 29.6588C44.3651 29.6588 45.9117 28.865 46.7893 27.5691L48.419 28.4051C47.1016 29.7018 44.9919 30.5163 42.9645 30.5163Z" fill="#0B301A"/>
<path d="M59.6332 25.1679C59.6332 28.1143 57.7112 30.4963 53.971 30.4963C50.2516 30.4963 48.3711 28.1143 48.3711 25.1679C48.3711 22.2215 50.3562 19.8188 53.971 19.8188C57.6066 19.8188 59.6332 22.2215 59.6332 25.1679ZM57.1474 25.0425C57.1474 22.3891 56.2906 20.2157 53.971 20.2157C51.6514 20.2157 50.8576 22.3891 50.8576 25.0425C50.8576 27.7167 51.3376 29.9317 53.971 29.9317C56.6244 29.9317 57.1474 27.7167 57.1474 25.0425Z" fill="#0B301A"/>
<path d="M72.6303 23.1829C72.6303 22.5353 72.881 20.6333 70.896 20.6333C69.9346 20.6333 69.3708 20.9678 69.0778 21.9492C69.2447 22.4507 69.3078 23.0775 69.3078 23.8089V28.5097C69.3078 30.161 70.0807 30.2648 70.0807 30.2648H66.069C66.069 30.2648 66.842 30.1602 66.842 28.4889C66.842 28.4889 66.842 28.4889 66.842 23.1814C66.842 22.5338 67.0927 20.6318 65.1077 20.6318C63.7494 20.6318 63.3318 21.2794 63.2687 23.4944V28.509C63.2687 30.1602 64.0625 30.2641 64.0625 30.2641H60.0508C60.0508 30.2641 60.803 30.1595 60.803 28.4882V22.7415C60.803 21.091 60.0508 20.9656 60.0508 20.9656L63.2687 20.025V20.6934C63.854 20.1504 64.5639 20.025 65.0869 20.025C66.9258 20.025 68.0118 20.318 68.6179 21.0702C69.2655 20.2134 70.2476 20.025 70.8952 20.025C74.2178 20.025 75.0953 21.0279 75.0953 23.8074V28.5082C75.0953 30.1595 75.8891 30.2633 75.8891 30.2633H71.8559C71.8559 30.2633 72.6288 30.1587 72.6288 28.4875C72.6303 28.4904 72.6303 28.4904 72.6303 23.1829Z" fill="#0B301A"/>
<path d="M88.8842 23.1829C88.8842 22.5353 89.1349 20.6333 87.1499 20.6333C86.1885 20.6333 85.624 20.9678 85.3317 21.9492C85.4986 22.4507 85.5617 23.0775 85.5617 23.8089V28.5097C85.5617 30.161 86.3346 30.2648 86.3346 30.2648H82.3229C82.3229 30.2648 83.0959 30.1602 83.0959 28.4889C83.0959 28.4889 83.0959 28.4889 83.0959 23.1814C83.0959 22.5338 83.3466 20.6318 81.3616 20.6318C80.0033 20.6318 79.5857 21.2794 79.5226 23.4944V28.509C79.5226 30.1602 80.3164 30.2641 80.3164 30.2641H76.3047C76.3047 30.2641 77.0569 30.1595 77.0569 28.4882V22.7415C77.0569 21.091 76.3047 20.9656 76.3047 20.9656L79.5226 20.025V20.6934C80.1079 20.1504 80.8178 20.025 81.3408 20.025C83.1797 20.025 84.2657 20.318 84.8718 21.0702C85.5194 20.2134 86.5015 20.025 87.1491 20.025C90.4717 20.025 91.3492 21.0279 91.3492 23.8074V28.5082C91.3492 30.1595 92.143 30.2633 92.143 30.2633H88.1098C88.1098 30.2633 88.8827 30.1587 88.8827 28.4875C88.8842 28.4904 88.8842 28.4904 88.8842 23.1829Z" fill="#0B301A"/>
<path d="M103.817 25.1679C103.817 28.1143 101.895 30.4963 98.1546 30.4963C94.4352 30.4963 92.5547 28.1143 92.5547 25.1679C92.5547 22.2215 94.5398 19.8188 98.1546 19.8188C101.79 19.8188 103.817 22.2215 103.817 25.1679ZM101.33 25.0425C101.33 22.3891 100.473 20.2157 98.1538 20.2157C95.8342 20.2157 95.0405 22.3891 95.0405 25.0425C95.0405 27.7167 95.5204 29.9317 98.1538 29.9317C100.808 29.9317 101.33 27.7167 101.33 25.0425Z" fill="#0B301A"/>
<path d="M111.213 23.1829C111.213 22.5353 111.276 20.6333 109.479 20.6333C108.058 20.6333 107.452 21.3439 107.452 23.8097V28.5105C107.452 30.1617 108.246 30.2656 108.246 30.2656H104.234C104.234 30.2656 104.987 30.161 104.987 28.4897V22.743C104.987 21.0925 104.234 20.9671 104.234 20.9671L107.452 20.0265V20.7371C108.141 20.1941 108.977 20.0265 109.479 20.0265C112.801 20.0265 113.679 21.0294 113.679 23.8089V28.5097C113.679 30.161 114.473 30.2648 114.473 30.2648H110.44C110.44 30.2648 111.213 30.1602 111.213 28.4889C111.213 28.4904 111.213 28.4904 111.213 23.1829Z" fill="#0B301A"/>
<path d="M47.8753 35.7579C47.8753 38.8712 45.2841 40.2502 42.0039 40.2502C41.5232 40.2502 39.8096 40.2086 39.1828 40.1248V43.5304C39.1828 45.1817 39.9765 45.2855 39.9765 45.2855H35.9648C35.9648 45.2855 36.7378 45.1809 36.7378 43.5097V33.1245C36.7378 31.474 35.9648 31.3479 35.9648 31.3479C35.9648 31.3479 40.3319 31.3479 40.5826 31.3479C44.615 31.3493 47.8753 32.6237 47.8753 35.7579ZM45.3887 35.904C45.3887 33.2506 43.2368 32.1846 40.5826 32.1846C40.1227 32.1846 39.6635 32.2684 39.2451 32.4146C39.2028 32.6237 39.1828 32.8745 39.1828 33.1667V39.3311C39.6635 39.4357 40.1857 39.4987 40.5618 39.4987C43.2153 39.498 45.3887 38.5366 45.3887 35.904Z" fill="#0B301A"/>
<path d="M59.5551 40.1879C59.5551 43.1343 57.633 45.5162 53.8929 45.5162C50.1734 45.5162 48.293 43.1343 48.293 40.1879C48.293 37.2415 50.278 34.8388 53.8929 34.8388C57.5284 34.8388 59.5551 37.2415 59.5551 40.1879ZM57.0685 40.0625C57.0685 37.4091 56.2117 35.2356 53.8921 35.2356C51.5725 35.2356 50.7788 37.4091 50.7788 40.0625C50.7788 42.7367 51.2594 44.9517 53.8921 44.9517C56.5456 44.9517 57.0685 42.7367 57.0685 40.0625Z" fill="#0B301A"/>
<path d="M64.8355 35.4025H63.3103C63.3103 37.1576 63.3103 39.9579 63.3103 42.193C63.3103 44.9725 64.6893 44.4287 64.6893 44.4287C64.5224 44.7633 64.0625 45.2855 63.2265 45.2855C61.346 45.2855 60.8446 44.0949 60.8446 42.2137C60.8446 39.3304 60.8446 36.2378 60.8446 36.2378C60.8446 36.0078 60.8446 35.6525 60.6984 35.4025H59.7578V35.0472C61.4291 35.0472 62.5366 34.4834 63.3103 33.7313C63.3103 33.7313 63.3103 34.2327 63.3103 35.0472H64.8355V35.4025Z" fill="#0B301A"/>
<path d="M67.1459 45.2855C68.0246 45.2855 68.737 44.5731 68.737 43.6944C68.737 42.8156 68.0246 42.1032 67.1459 42.1032C66.2671 42.1032 65.5547 42.8156 65.5547 43.6944C65.5547 44.5731 66.2671 45.2855 67.1459 45.2855Z" fill="#0B301A"/>
</svg>
