<svg width="158" height="48" viewBox="0 0 158 48" fill="none" xmlns="http://www.w3.org/2000/svg">
<path fill-rule="evenodd" clip-rule="evenodd" d="M63.837 4H31.727C29.117 4 27 6.107 27 8.706V38.97C27 41.57 29.116 43.676 31.727 43.676H63.837C66.448 43.676 68.565 41.569 68.565 38.97V8.706C68.565 6.106 66.448 4 63.837 4ZM36.48 17.449H40.122C42.207 17.449 43.514 18.639 43.514 20.535C43.514 22.458 42.277 23.593 40.164 23.593H36.48V17.449ZM36.48 26.803H39.914L43.654 34.041H48.407L44.181 26.153C46.489 25.24 47.823 23.025 47.823 20.479C47.823 16.508 45.113 14.072 40.706 14.072H32.282V34.041H36.48V26.803ZM59.548 24.811C59.465 22.791 58.242 21.531 56.351 21.531C54.474 21.531 53.154 22.831 53.015 24.811H59.548ZM56.504 31.273C58.103 31.273 59.201 30.706 59.632 29.695H63.399C62.787 32.574 60.146 34.373 56.393 34.373C51.723 34.373 48.97 31.439 48.97 26.485C48.97 21.517 51.778 18.445 56.337 18.445C60.855 18.445 63.524 21.31 63.524 26.153V27.384H53V27.592C53.056 29.862 54.39 31.272 56.503 31.272L56.504 31.273ZM72.694 34.04H76.739V22.098H79.909V18.93H76.656V17.67C76.656 16.37 77.24 15.747 78.824 15.747C79.353 15.747 79.77 15.788 80.034 15.816V12.966C79.3444 12.8579 78.647 12.8068 77.949 12.813C74.251 12.813 72.694 14.349 72.694 17.379V18.929H70.22V22.099H72.694V34.04ZM95.527 26.402C95.527 31.398 92.691 34.372 87.979 34.372C83.267 34.372 80.431 31.398 80.431 26.402C80.431 21.462 83.308 18.445 87.979 18.445C92.649 18.445 95.527 21.448 95.527 26.402ZM84.587 26.402C84.587 29.377 85.81 31.079 87.979 31.079C90.133 31.079 91.371 29.363 91.371 26.402C91.371 23.468 90.12 21.739 87.979 21.739C85.824 21.739 84.587 23.469 84.587 26.402ZM97.407 34.041H101.452V25.586C101.452 23.441 102.968 22.14 105.178 22.14C105.831 22.14 106.776 22.265 107.096 22.39V18.722C106.749 18.597 106.067 18.528 105.511 18.528C103.565 18.528 101.981 19.691 101.577 21.213H101.327V18.777H97.407V34.041ZM112.57 34.041H108.524V18.777H112.444V21.268H112.695C113.32 19.525 114.919 18.445 116.934 18.445C119.089 18.445 120.563 19.497 121.174 21.268H121.424C122.133 19.566 123.899 18.445 126.039 18.445C129.098 18.445 131.002 20.425 131.002 23.565V34.041H126.957V24.631C126.957 22.818 126.109 21.919 124.399 21.919C122.759 21.919 121.702 23.081 121.702 24.7V34.04H117.81V24.465C117.81 22.845 116.865 21.919 115.28 21.919C113.695 21.919 112.57 23.15 112.57 24.852V34.041Z" fill="#CFE9D6"/>
</svg>
