<svg width="158" height="48" viewBox="0 0 158 48" fill="none" xmlns="http://www.w3.org/2000/svg">
<path fill-rule="evenodd" clip-rule="evenodd" d="M24.0051 6.79895C37.8471 4.36895 41.8351 7.04295 44.2951 20.9589C46.7581 34.872 44.2531 38.689 30.0891 41.178C15.9241 43.665 12.2621 40.938 9.79911 27.02C7.33511 13.0999 10.1641 9.23195 24.0051 6.79895ZM25.6001 12.9469C22.9501 13.4129 21.0341 14.6249 19.9321 16.3869C19.0671 17.7709 18.7911 19.3919 19.0411 20.7049C19.5931 23.5999 21.9911 25.422 26.8501 25.79L27.2301 25.8169L27.6071 25.847L27.9651 25.881C29.6591 26.05 30.7431 26.337 31.3411 26.7059C31.7411 26.951 31.9011 27.219 32.0151 27.868C32.2331 29.1 31.2701 30.216 28.7351 30.661C27.0581 30.956 25.2681 30.601 23.3121 29.538C22.819 29.2703 22.24 29.2088 21.7017 29.3667C21.1634 29.5247 20.7094 29.8893 20.4391 30.381C20.3058 30.6242 20.2219 30.8914 20.1922 31.1672C20.1626 31.4431 20.1878 31.722 20.2664 31.988C20.3451 32.254 20.4756 32.5019 20.6504 32.7173C20.8252 32.9326 21.0409 33.1113 21.2851 33.243C24.0451 34.743 26.7941 35.287 29.4711 34.817C34.1441 33.996 36.8461 30.868 36.1861 27.135C35.5581 23.591 33.0501 22.0089 27.5151 21.6069L27.1501 21.5809C25.3681 21.4449 24.2521 21.0999 23.6631 20.6609C23.3721 20.4429 23.2641 20.2509 23.2001 19.919C23.1451 19.6229 23.2371 19.0799 23.5251 18.6189C23.9681 17.9129 24.8301 17.3669 26.3361 17.1029C27.6711 16.8679 28.9611 17.0929 30.2831 17.8089C30.5888 17.9742 30.9303 18.0619 31.2778 18.0642C31.6253 18.0666 31.968 17.9835 32.2758 17.8223C32.5837 17.6611 32.8472 17.4268 33.0432 17.1399C33.2393 16.853 33.3618 16.5223 33.4001 16.1769C33.4445 15.7615 33.3641 15.3423 33.1693 14.9727C32.9744 14.6032 32.6739 14.3 32.3061 14.1019C30.1571 12.9379 27.8961 12.5429 25.6001 12.9469Z" fill="#CFE9D6"/>
<path d="M59.7918 31.34C62.9458 31.34 65.1558 29.686 65.1558 26.905V26.863C65.1558 24.4 63.5258 23.275 60.3488 22.512C57.4518 21.833 56.7658 21.323 56.7658 20.177V20.134C56.7658 19.159 57.6658 18.374 59.2128 18.374C60.3928 18.374 61.5078 18.756 62.6668 19.499C62.8818 19.626 63.0968 19.69 63.3538 19.69C64.0398 19.69 64.5978 19.159 64.5978 18.48C64.5978 17.97 64.3188 17.609 64.0178 17.439C62.6678 16.548 61.1428 16.059 59.2538 16.059C56.2728 16.059 54.1268 17.821 54.1268 20.369V20.411C54.1268 23.148 55.9288 24.082 59.1268 24.847C61.9148 25.483 62.5158 26.057 62.5158 27.117V27.16C62.5158 28.262 61.4858 29.027 59.8558 29.027C58.2248 29.027 56.8948 28.477 55.6498 27.5C55.4788 27.373 55.2428 27.266 54.8778 27.266C54.1918 27.266 53.6328 27.796 53.6328 28.476C53.6328 28.9 53.8468 29.262 54.1488 29.473C55.779 30.6882 57.7586 31.3431 59.7918 31.34ZM71.1898 31.363C72.9278 31.363 74.1078 30.641 74.8798 29.728V30.152C74.8798 30.726 75.3958 31.235 76.1468 31.235C76.8548 31.235 77.4118 30.704 77.4118 30.004V24.486C77.4118 23.021 77.0258 21.833 76.1898 21.026C75.3958 20.22 74.1298 19.774 72.4348 19.774C70.9548 19.774 69.8598 20.029 68.7868 20.433C68.582 20.5147 68.4058 20.6547 68.2799 20.8357C68.154 21.0167 68.0841 21.2306 68.0788 21.451C68.0788 22.045 68.5718 22.511 69.1738 22.511C69.3114 22.5091 69.4481 22.4879 69.5798 22.448C70.2878 22.172 71.1048 22.003 72.0908 22.003C73.9148 22.003 74.9028 22.851 74.9028 24.444V24.719C73.9184 24.3994 72.8887 24.2417 71.8538 24.252C69.0878 24.252 67.1778 25.441 67.1778 27.86V27.903C67.1778 30.153 69.0658 31.363 71.1898 31.363ZM71.9198 29.496C70.6738 29.496 69.7098 28.879 69.7098 27.796V27.754C69.7098 26.586 70.6958 25.887 72.3698 25.887C73.3998 25.887 74.2798 26.077 74.9438 26.332V27.097C74.9438 28.517 73.6358 29.494 71.9188 29.494L71.9198 29.496ZM84.8398 31.34C85.5478 31.34 86.0198 30.873 86.3198 30.214L90.0968 21.641C90.1898 21.449 90.2408 21.239 90.2468 21.025C90.2468 20.325 89.6898 19.795 88.9818 19.795C88.2948 19.795 87.9518 20.24 87.7588 20.685L84.7978 28.155L81.8788 20.729C81.6648 20.197 81.2988 19.795 80.5918 19.795C79.8838 19.795 79.3048 20.389 79.3048 21.025C79.3048 21.258 79.3908 21.471 79.4548 21.662L83.2318 30.214C83.5318 30.894 84.0038 31.339 84.7108 31.339H84.8408L84.8398 31.34ZM97.0538 31.34C97.7618 31.34 98.2338 30.873 98.5338 30.214L102.311 21.641C102.404 21.449 102.455 21.239 102.461 21.025C102.461 20.325 101.904 19.795 101.196 19.795C100.509 19.795 100.166 20.24 99.9728 20.685L97.0108 28.155L94.0928 20.729C93.8778 20.197 93.5128 19.795 92.8058 19.795C92.0978 19.795 91.5188 20.389 91.5188 21.025C91.5188 21.258 91.6048 21.471 91.6688 21.662L95.4438 30.214C95.7458 30.894 96.2178 31.339 96.9258 31.339L97.0538 31.34ZM106.607 34.587C108.432 34.587 109.461 33.738 110.427 31.447L114.568 21.619C114.611 21.492 114.675 21.217 114.675 21.004C114.675 20.324 114.117 19.794 113.431 19.794C112.765 19.794 112.4 20.24 112.186 20.77L109.354 28.22L106.307 20.77C106.071 20.176 105.706 19.795 105.041 19.795C104.312 19.795 103.754 20.325 103.754 21.047C103.754 21.216 103.817 21.471 103.904 21.662L108.109 30.958L108.023 31.191C107.594 32.061 107.187 32.381 106.414 32.381C106.049 32.381 105.813 32.316 105.513 32.231C105.384 32.189 105.256 32.146 105.041 32.146C104.831 32.1445 104.625 32.2061 104.451 32.3229C104.277 32.4397 104.141 32.6063 104.063 32.801C104.011 32.9304 103.986 33.0688 103.99 33.208C103.99 33.823 104.419 34.142 104.805 34.269C105.341 34.48 105.878 34.587 106.607 34.587ZM124.378 31.382C126.803 31.382 128.412 30.617 129.829 29.388C129.962 29.2716 130.07 29.1282 130.144 28.9672C130.218 28.8061 130.257 28.6312 130.258 28.454C130.258 27.796 129.679 27.244 129.013 27.244C128.691 27.244 128.412 27.372 128.219 27.54C127.125 28.454 126.051 28.962 124.464 28.962C121.589 28.962 119.507 26.607 119.507 23.7V23.657C119.507 20.749 121.611 18.414 124.464 18.414C125.902 18.414 127.018 18.924 128.047 19.752C128.276 19.9216 128.555 20.0108 128.841 20.006C129.572 20.006 130.151 19.455 130.151 18.733C130.151 18.266 129.914 17.906 129.636 17.693C128.326 16.695 126.803 16.017 124.485 16.017C119.936 16.017 116.74 19.477 116.74 23.7V23.742C116.74 28.007 120.001 31.382 124.378 31.382ZM136.163 31.361C137.902 31.361 139.081 30.64 139.855 29.727V30.151C139.855 30.725 140.369 31.234 141.119 31.234C141.828 31.234 142.386 30.703 142.386 30.003V24.485C142.386 23.02 142 21.832 141.162 21.025C140.369 20.219 139.103 19.773 137.408 19.773C135.927 19.773 134.833 20.028 133.76 20.432C133.555 20.5136 133.379 20.6536 133.252 20.8346C133.126 21.0156 133.056 21.2296 133.051 21.45C133.051 22.044 133.546 22.51 134.146 22.51C134.284 22.509 134.421 22.487 134.553 22.447C135.262 22.171 136.077 22.002 137.064 22.002C138.888 22.002 139.875 22.85 139.875 24.443V24.718C138.891 24.3986 137.862 24.2408 136.828 24.251C134.061 24.251 132.15 25.44 132.15 27.859V27.902C132.15 30.152 134.039 31.361 136.163 31.361ZM136.892 29.493C135.648 29.493 134.683 28.878 134.683 27.795V27.753C134.683 26.585 135.67 25.886 137.343 25.886C138.374 25.886 139.253 26.076 139.918 26.331V27.096C139.918 28.516 138.608 29.493 136.892 29.493ZM146.896 31.233C147.626 31.233 148.205 30.683 148.205 29.96V16.803C148.205 16.103 147.626 15.53 146.896 15.53C146.167 15.53 145.608 16.102 145.608 16.803V29.961C145.608 30.684 146.189 31.235 146.896 31.235V31.233Z" fill="#CFE9D6"/>
</svg>
