<svg width="158" height="48" viewBox="0 0 158 48" fill="none" xmlns="http://www.w3.org/2000/svg">
<path fill-rule="evenodd" clip-rule="evenodd" d="M35.2783 33.677C35.2783 36.12 34.4283 37.119 32.1133 37.119H11.5713C9.25535 37.119 8.40635 36.119 8.40635 33.677V28.92C8.40635 26.626 7.30135 25.33 6.23935 24.736C6.16629 24.6917 6.10588 24.6293 6.06395 24.5549C6.02203 24.4804 6 24.3964 6 24.311C6 24.2256 6.02203 24.1416 6.06395 24.0671C6.10588 23.9927 6.16629 23.9303 6.23935 23.886C7.34435 23.185 8.40635 21.719 8.40635 19.765V15.09C8.40635 12.456 9.12835 11.69 11.4433 11.69H32.2414C34.5574 11.69 35.2793 12.456 35.2793 15.09V19.763C35.2793 21.717 36.3413 23.183 37.4453 23.883C37.7653 24.096 37.7653 24.543 37.4453 24.733C36.3833 25.349 35.2793 26.645 35.2793 28.918V33.676L35.2783 33.677ZM15.8203 30.555C17.4983 32.02 19.3043 32.764 21.7903 32.764C25.6983 32.764 28.2473 30.81 28.2473 27.644C28.2473 24.292 25.2113 23.437 22.7423 22.742C21.0493 22.265 19.6223 21.862 19.6223 20.782C19.6223 20.082 20.3663 19.402 21.6193 19.402C22.8303 19.402 23.8293 19.658 24.7843 20.146C25.1043 20.295 25.4004 20.401 25.6763 20.401C26.0803 20.401 26.3993 20.21 26.6763 19.828L27.0573 19.254C27.2073 19.042 27.2703 18.808 27.2703 18.554C27.2703 18.128 27.0573 17.704 26.7403 17.491C25.4643 16.684 23.7433 16.004 21.4073 16.004C18.0933 16.004 15.5443 17.746 15.5443 20.868C15.5443 24.358 18.6463 25.245 21.1303 25.953C22.7873 26.426 24.1683 26.82 24.1683 27.857C24.1683 28.855 23.2344 29.344 22.0653 29.344C20.6617 29.3574 19.286 28.9506 18.1153 28.176C17.7533 27.942 17.4133 27.793 17.0523 27.793C16.7333 27.793 16.4573 27.942 16.2023 28.261L15.6923 28.919C15.5023 29.132 15.4383 29.408 15.4383 29.663C15.4383 29.981 15.5443 30.3 15.8203 30.555ZM47.5564 28.6C47.2803 28.6 47.0464 28.707 46.8344 28.983L46.4093 29.578C46.2393 29.768 46.1964 30.002 46.1964 30.215C46.1964 30.491 46.3023 30.767 46.5363 30.98C47.9383 32.19 49.4683 32.828 51.5714 32.828C54.8633 32.828 57.0313 31.171 57.0313 28.515C57.0313 25.691 54.4623 24.97 52.3764 24.384C50.9473 23.982 49.7443 23.644 49.7443 22.738C49.7443 22.122 50.3813 21.568 51.4223 21.568C52.3458 21.5651 53.2564 21.7843 54.0773 22.207L54.1413 22.231C54.3933 22.329 54.6263 22.419 54.8413 22.419C55.1613 22.419 55.4373 22.269 55.6713 21.929L56.0114 21.442C56.1261 21.2573 56.1851 21.0434 56.1814 20.826C56.1814 20.465 56.0114 20.104 55.7344 19.934C54.6514 19.211 53.2063 18.659 51.2313 18.659C48.4483 18.659 46.2813 20.146 46.2813 22.779C46.2813 25.707 48.8963 26.454 50.9933 27.052C52.3963 27.452 53.5674 27.787 53.5674 28.664C53.5674 29.534 52.7813 29.939 51.7833 29.939C50.4873 29.939 49.4034 29.578 48.4483 28.939C48.1723 28.728 47.8324 28.6 47.5564 28.6ZM67.8424 30.895C67.8458 30.7138 67.7938 30.5359 67.6934 30.385L67.4174 29.939C67.1623 29.493 66.8654 29.323 66.4824 29.323C66.2924 29.323 66.0794 29.365 65.8024 29.471C65.5274 29.578 65.2084 29.62 64.8474 29.62C63.7214 29.62 63.2323 28.643 63.2323 27.177V22.25H66.4824C67.0984 22.25 67.6084 21.74 67.6084 21.124V20.104C67.6084 19.489 67.0984 18.979 66.4824 18.979H63.2323V16.345C63.2323 15.729 62.7223 15.219 62.1073 15.219H60.8973C60.2803 15.219 59.7703 15.729 59.7703 16.345V27.305C59.7703 30.768 60.9174 32.744 63.9554 32.744C65.2934 32.744 66.3134 32.468 67.3324 31.851C67.6724 31.681 67.8424 31.277 67.8424 30.895ZM74.7243 24.14C71.9844 24.14 69.7963 25.542 69.7963 28.515C69.7963 31.128 71.5593 32.658 73.9604 32.679C75.7863 32.679 77.2304 31.978 77.9534 30.959V31.404C77.9534 32.02 78.4634 32.53 79.0794 32.53H79.8653C80.4813 32.53 80.9913 32.02 80.9913 31.404V24.31C80.9913 20.742 79.6114 18.703 75.6173 18.703C74.2374 18.703 72.8973 19.063 71.7293 19.595C71.3693 19.765 71.0924 20.168 71.0924 20.551C71.0975 20.6734 71.1253 20.7938 71.1744 20.906C71.1904 20.951 71.2074 20.996 71.2194 21.039L71.3894 21.399C71.6023 21.825 71.9633 22.038 72.4093 22.038C72.5434 22.038 72.6904 21.998 72.8304 21.96L72.9404 21.93C73.5774 21.719 74.2364 21.57 75.2553 21.57C77.1254 21.57 77.7624 22.632 77.7624 24.608V25.012C77.1034 24.522 75.9144 24.141 74.7243 24.141V24.14ZM75.4044 26.455C76.3813 26.455 77.1464 26.667 77.7624 27.114H77.7833V28.514C77.3583 29.089 76.6153 29.726 75.1703 29.726C74.0664 29.726 73.2374 29.153 73.2374 28.133C73.2374 26.986 74.2573 26.455 75.4044 26.455ZM92.3144 30.895C92.3175 30.7137 92.2651 30.5358 92.1644 30.385L91.8884 29.939C91.6334 29.493 91.3364 29.323 90.9534 29.323C90.7634 29.323 90.5504 29.365 90.2734 29.471C89.9974 29.578 89.6794 29.62 89.3184 29.62C88.1924 29.62 87.7034 28.643 87.7034 27.177V22.25H90.9534C91.5694 22.25 92.0794 21.74 92.0794 21.124V20.104C92.0794 19.489 91.5694 18.979 90.9534 18.979H87.7034V16.345C87.7034 15.729 87.1934 15.219 86.5774 15.219H85.3673C84.7514 15.219 84.2413 15.729 84.2413 16.345V27.305C84.2413 30.768 85.3884 32.744 88.4254 32.744C89.7654 32.744 90.7834 32.468 91.8034 31.851C92.1433 31.681 92.3144 31.277 92.3144 30.895ZM99.1954 24.14C96.4554 24.14 94.2673 25.542 94.2673 28.515C94.2673 31.128 96.0514 32.658 98.4304 32.679C100.257 32.679 101.702 31.978 102.424 30.959V31.404C102.424 32.02 102.934 32.53 103.55 32.53H104.336C104.952 32.53 105.462 32.02 105.462 31.404V24.31C105.462 20.742 104.081 18.703 100.087 18.703C98.7074 18.703 97.3683 19.063 96.2003 19.595C95.8403 19.765 95.5634 20.168 95.5634 20.551C95.5685 20.6734 95.5963 20.7937 95.6453 20.906C95.6613 20.951 95.6784 20.996 95.6904 21.039L95.8604 21.399C96.0733 21.825 96.4343 22.038 96.8803 22.038C97.0144 22.038 97.1614 21.998 97.3004 21.96L97.4104 21.93C98.0484 21.719 98.7074 21.57 99.7263 21.57C101.596 21.57 102.233 22.632 102.233 24.608V25.012C101.574 24.522 100.385 24.141 99.1954 24.141V24.14ZM99.8754 26.455C100.852 26.455 101.617 26.667 102.233 27.114H102.254V28.514C101.829 29.089 101.086 29.726 99.6413 29.726C98.5374 29.726 97.7084 29.153 97.7084 28.133C97.7084 26.986 98.7283 26.455 99.8754 26.455ZM116.677 18.745C115.02 18.745 113.427 19.403 112.471 20.465H112.408V20.082C112.408 19.466 111.898 18.956 111.282 18.956H110.071C109.455 18.956 108.945 19.466 108.945 20.082V31.362C108.945 31.978 109.455 32.488 110.071 32.488H111.282C111.898 32.488 112.408 31.978 112.408 31.362V23.417C113.024 22.504 114.022 21.973 115.233 21.973C116.677 21.973 117.463 22.886 117.463 24.31V31.32C117.463 31.935 117.973 32.445 118.589 32.445H119.8C120.416 32.445 120.926 31.935 120.926 31.319V24.5C120.926 24.324 120.919 24.104 120.914 23.906C120.909 23.744 120.904 23.596 120.904 23.501C121.372 22.588 122.391 21.951 123.687 21.951C125.323 21.951 126.003 22.864 126.003 24.541V31.361C126.003 31.977 126.512 32.487 127.128 32.487H128.339C128.955 32.487 129.465 31.977 129.465 31.361V23.671C129.465 19.954 127.617 18.743 125.153 18.743C123.071 18.743 121.563 19.635 120.607 20.91C120.119 19.678 118.738 18.743 116.677 18.743V18.745ZM135.285 16.28C136.262 16.28 137.261 15.494 137.261 14.113C137.261 12.903 136.262 12.117 135.285 12.117C134.117 12.117 133.119 12.903 133.119 14.113C133.119 15.493 134.117 16.28 135.285 16.28ZM136.942 20.104C136.942 19.488 136.432 18.978 135.816 18.978V18.956H134.606C133.99 18.956 133.48 19.466 133.48 20.082V31.362C133.48 31.978 133.99 32.488 134.606 32.488H135.816C136.432 32.488 136.942 31.978 136.942 31.362V20.104ZM147.882 21.888C148.753 21.888 149.454 22.037 150.261 22.418C150.404 22.498 150.559 22.53 150.699 22.558L150.834 22.588C151.238 22.588 151.62 22.334 151.854 21.952L152.3 21.166C152.406 21.016 152.428 20.846 152.428 20.676C152.428 20.295 152.236 19.849 151.897 19.679C150.58 18.956 149.263 18.659 147.457 18.659C143.336 18.659 140.468 21.803 140.468 25.733C140.468 29.981 143.421 32.806 147.882 32.806C149.56 32.806 150.983 32.509 152.598 31.213C152.852 31.022 153.001 30.618 153.001 30.257C153.001 30.024 152.937 29.79 152.789 29.641L152.279 29.004C152.167 28.8644 152.024 28.7519 151.863 28.6747C151.701 28.5975 151.524 28.5576 151.344 28.558C151.111 28.558 150.856 28.643 150.622 28.792C149.836 29.302 149.071 29.578 148.009 29.578C145.97 29.578 144.122 28.091 144.122 25.712C144.122 23.354 145.949 21.888 147.882 21.888Z" fill="#CFE9D6"/>
</svg>
