<svg width="158" height="48" viewBox="0 0 158 48" fill="none" xmlns="http://www.w3.org/2000/svg">
<path d="M55.4192 18.178V15.687H66.3752V18.178H62.2992V32.053H59.4652V18.178H55.4192ZM73.5162 22.755C73.0772 22.677 72.6321 22.6382 72.1862 22.639C70.3662 22.639 69.2962 23.827 69.2962 26.231V32.024H66.6062V20.554H69.2372V22.176H69.2952C69.8152 21.191 70.9722 20.176 72.5052 20.176C72.9382 20.176 73.2272 20.206 73.5162 20.235V22.755ZM86.3822 32.024H83.7802V30.576H83.7222C82.9422 31.561 81.6982 32.459 79.7902 32.459C77.2172 32.459 74.2972 30.402 74.2972 26.289C74.2972 22.639 76.8702 20.206 79.9922 20.206C81.9002 20.206 83.0572 21.219 83.7522 22.117H83.8092V20.553H86.4112V32.024H86.3822ZM80.4842 30.084C82.2472 30.084 83.8952 28.548 83.8952 26.346C83.8952 24.029 82.3922 22.494 80.5132 22.494C78.1432 22.494 77.0142 24.406 77.0142 26.289C77.0142 28.2 78.1142 30.084 80.4842 30.084ZM89.5052 20.553H92.1652V22.002H92.2222C93.1182 20.698 94.4482 20.177 95.7202 20.177C98.0912 20.177 100.173 21.741 100.173 25.42V32.024H97.4832V25.564C97.4832 23.594 96.5592 22.552 95.0262 22.552C93.3492 22.552 92.1932 23.74 92.1932 25.97V32.053H89.5042L89.5052 20.553ZM108.297 23.508C108.181 22.668 107.545 22.118 106.764 22.118C105.839 22.118 105.319 22.697 105.319 23.334C105.319 24.029 105.666 24.522 107.66 25.188C110.118 25.97 110.985 27.245 110.985 28.867C110.985 30.981 109.395 32.459 106.764 32.459C104.018 32.459 102.659 30.952 102.456 28.809H104.943C105.058 29.765 105.637 30.489 106.822 30.489C107.834 30.489 108.412 29.852 108.412 29.069C108.412 28.201 107.921 27.65 106.013 27.013C103.873 26.318 102.774 25.246 102.774 23.45C102.774 21.567 104.249 20.177 106.677 20.177C109.135 20.177 110.436 21.625 110.725 23.507L108.297 23.508ZM113.327 15.281H116.305V18.004H113.327V15.281ZM113.472 20.553H116.16V32.053H113.472V20.553ZM124.458 23.508C124.342 22.668 123.706 22.118 122.925 22.118C122 22.118 121.48 22.697 121.48 23.334C121.48 24.029 121.827 24.522 123.822 25.188C126.279 25.97 127.146 27.245 127.146 28.867C127.146 30.981 125.556 32.459 122.925 32.459C120.179 32.459 118.82 30.952 118.618 28.809H121.104C121.22 29.765 121.798 30.489 122.983 30.489C123.995 30.489 124.573 29.852 124.573 29.069C124.573 28.201 124.082 27.65 122.174 27.013C120.034 26.318 118.936 25.246 118.936 23.45C118.936 21.567 120.41 20.177 122.839 20.177C125.296 20.177 126.597 21.625 126.886 23.507L124.458 23.508ZM128.303 20.553H129.748V16.875H132.437V20.553H135.299V22.813H132.408V27.94C132.408 29.504 132.9 29.939 133.998 29.939C134.461 29.939 134.981 29.852 135.386 29.736V31.908C134.779 32.082 134.027 32.169 133.362 32.169C130.5 32.169 129.748 30.431 129.748 28.085V22.813H128.303V20.553ZM142.614 20.177C146.199 20.177 148.743 22.813 148.743 26.289C148.743 29.678 146.17 32.459 142.614 32.459C139.116 32.459 136.485 29.765 136.485 26.289C136.485 22.726 139.145 20.177 142.614 20.177ZM142.614 30.054C144.638 30.054 146.025 28.432 146.025 26.289C146.025 24.261 144.724 22.552 142.614 22.552C140.561 22.552 139.202 24.145 139.202 26.289C139.202 28.49 140.764 30.054 142.614 30.054ZM156.666 22.639C154.844 22.639 153.775 23.827 153.775 26.231V32.024H151.086V20.554H153.717V22.176H153.775C154.295 21.191 155.451 20.176 156.984 20.176C157.417 20.176 157.706 20.206 157.996 20.235V22.755C157.557 22.677 157.112 22.6382 156.666 22.639ZM20.8112 37.731C20.4429 37.7305 20.0898 37.5838 19.8296 37.3232C19.5694 37.0626 19.4232 36.7093 19.4232 36.341V11.37C19.4236 11.0957 19.5053 10.8278 19.6578 10.5998C19.8104 10.3719 20.0269 10.1942 20.2803 10.0892C20.5337 9.98419 20.8124 9.95652 21.0815 10.0097C21.3505 10.0629 21.5978 10.1945 21.7922 10.388C22.0522 10.648 22.1982 11.002 22.1982 11.37V36.34C22.1982 37.093 21.5622 37.731 20.8112 37.731ZM15.0292 25.247H8.37919C8.01106 25.2462 7.65827 25.0994 7.39825 24.8388C7.13822 24.5782 6.99219 24.2251 6.99219 23.857C6.99219 23.074 7.59919 22.466 8.38019 22.466H15.0302C15.3988 22.466 15.7524 22.6124 16.0131 22.8731C16.2737 23.1338 16.4202 23.4874 16.4202 23.856C16.4202 24.2247 16.2737 24.5782 16.0131 24.8389C15.7524 25.0996 15.3988 25.246 15.0302 25.246L15.0292 25.247ZM33.2722 25.247H26.5942C26.2259 25.2465 25.8728 25.0998 25.6126 24.8392C25.3524 24.5786 25.2062 24.2253 25.2062 23.857C25.2062 23.074 25.8132 22.466 26.5942 22.466H33.2442C33.6123 22.4668 33.9651 22.6136 34.2251 22.8742C34.4852 23.1348 34.6312 23.4879 34.6312 23.856C34.6312 24.638 34.0242 25.247 33.2722 25.247Z" fill="#CFE9D6"/>
<path d="M20.816 44.712C9.338 44.712 0 35.356 0 23.856C0 12.356 9.338 3 20.816 3C32.294 3 41.632 12.356 41.632 23.856C41.632 35.356 32.294 44.712 20.816 44.712ZM20.816 5.781C10.871 5.781 2.776 13.891 2.776 23.856C2.776 33.821 10.871 41.931 20.816 41.931C30.762 41.931 38.856 33.821 38.856 23.856C38.856 13.891 30.762 5.781 20.816 5.781Z" fill="#CFE9D6"/>
</svg>
