<svg width="158" height="48" viewBox="0 0 158 48" fill="none" xmlns="http://www.w3.org/2000/svg">
<path fill-rule="evenodd" clip-rule="evenodd" d="M45 4L27 10V29.5L33 31.5V37L51 43V11.5L45 13.5V4ZM35 32.167L45 35.5V15.608L49 14.275V40.225L35 35.56V32.167Z" fill="#CFE9D6"/>
<path d="M69.9006 20.45V31H74.3476V20.45H77.8776V17.058H66.3906V20.451L69.9006 20.45ZM80.1066 25.248C80.1066 29.226 82.4066 31.254 86.4826 31.254C90.3826 31.254 92.8786 29.401 92.8786 25.209V17.059H88.4326V25.053C88.4326 26.886 88.0426 27.783 86.4826 27.783C84.9026 27.783 84.5126 26.886 84.5126 25.073V17.058H80.1066V25.248Z" fill="#CFE9D6"/>
<path fill-rule="evenodd" clip-rule="evenodd" d="M95.9688 31V17.058H101.527C105.544 17.058 107.26 18.852 107.26 21.835V21.913C107.26 24.819 105.33 26.457 101.722 26.457H100.376V31H95.9688ZM101.292 23.493H100.376V20.353H101.312C102.462 20.353 103.067 20.783 103.067 21.855V21.933C103.067 22.966 102.462 23.493 101.292 23.493Z" fill="#CFE9D6"/>
<path d="M109.562 31V17.058H113.99V27.588H119.06V31H109.562ZM121.562 17.058V31H131.78V27.607H125.969V25.521H130.337V22.421H125.969V20.451H131.467V17.058H121.562Z" fill="#CFE9D6"/>
</svg>
